<svg xmlns="http://www.w3.org/2000/svg" xmlns:xlink="http://www.w3.org/1999/xlink" xmlns:fi="http://pattern.flaticon.com/" x="0" y="0" width="1920" height="960" viewBox="0 0 1920 960"><rect x="0px" y="0px" width="100%" height="100%" opacity="1" fill="#ffffff"/><defs><g transform="matrix(0.3395832983047506 0.09099107054385494 -0.09099107054385494 0.3395832983047506 317.14535471451416 295.1816088119822)" id="L1_71"><path d="m97.514 109.479v-49.833a12.278 12.278 0 0 1 12.278-12.278h53.614l-8.39-11.05h-25.783l-12.278-13.3h-28.64a12.278 12.278 0 0 0 -12.278 12.282v74.183a10.784 10.784 0 0 0 10.739 10.739 10.739 10.739 0 0 0 10.738-10.743z" fill="#9e9e9e"/><path d="m86.037 109.48v-74.18a12.278 12.278 0 0 1 12.278-12.282h-10a12.278 12.278 0 0 0 -12.278 12.282v74.18a10.734 10.734 0 0 0 15.753 9.493 10.714 10.714 0 0 1 -5.753-9.493z" fill="#707070"/><path d="m86.776 31.466h83.99v75.991h-83.99z" fill="#cecece"/><path d="m160.766 31.465h10v75.99h-10z" fill="#e2e2e2"/><path d="m163.406 47.368h-53.614a12.278 12.278 0 0 0 -12.278 12.278v49.833a10.739 10.739 0 0 1 -10.739 10.739h82.451a10.736 10.736 0 0 0 10.736-10.736v-62.114z" fill="#f8af23"/><path d="m169.963 47.369v62.114a10.736 10.736 0 0 1 -10.736 10.736h10a10.736 10.736 0 0 0 10.736-10.736v-62.114z" fill="#f8d323"/><path d="m21.11 176.922h22.544l3.936 13.24h26.837v31.847h-53.317z" fill="#63bce7"/><path d="m21.11 176.922h10v45.087h-10z" fill="#6377e7"/><path d="m101.342 176.922h22.543l3.936 13.24h26.837v31.847h-53.316z" fill="#f46275"/><path d="m181.573 176.922h22.543l3.936 13.24h26.838v31.847h-53.317z" fill="#cecece"/><path d="m224.89 190.162h10v31.847h-10z" fill="#e2e2e2"/><g fill="#3f3679"><path d="m27.323 231.481h-18a1.5 1.5 0 1 0 0 3h18a1.5 1.5 0 1 0 0-3z"/><path d="m246.68 231.481h-18a1.5 1.5 0 0 0 0 3h18a1.5 1.5 0 0 0 0-3z"/><path d="m218.479 231.481h-180.958a1.5 1.5 0 0 0 0 3h180.958a1.5 1.5 0 0 0 0-3z"/><path d="m9.32 223.509h237.36a1.5 1.5 0 0 0 0-3h-10.29v-30.348a1.5 1.5 0 0 0 -1.5-1.5h-25.159v-29.438a6.508 6.508 0 0 0 -6.5-6.5h-73.731v-31h39.727a12.249 12.249 0 0 0 12.236-12.235v-62.12a1.5 1.5 0 0 0 -1.5-1.5h-7.7v-14.4a1.5 1.5 0 0 0 -1.5-1.5h-45.416a1.413 1.413 0 0 0 -.121-.2l-7.169-7.768a1.5 1.5 0 0 0 -1.1-.482h-28.642a13.793 13.793 0 0 0 -13.777 13.782v74.183a12.285 12.285 0 0 0 12.238 12.238h39.724v31h-73.731a6.508 6.508 0 0 0 -6.5 6.5v21.229l-1.177-3.958a1.5 1.5 0 0 0 -1.438-1.072h-22.544a1.5 1.5 0 0 0 -1.5 1.5v43.587h-10.29a1.5 1.5 0 1 0 0 3zm159.946-177.641h-59.474a13.793 13.793 0 0 0 -13.777 13.778v46.31h-7.739v-72.99h80.99zm-82.49 72.85a9.282 9.282 0 0 1 -9.238-9.238v-74.18a10.79 10.79 0 0 1 10.777-10.781h27.985l5.029 5.447h-34.553a1.5 1.5 0 0 0 -1.5 1.5v75.99a1.5 1.5 0 0 0 1.5 1.5h9.239v.523a9.249 9.249 0 0 1 -9.239 9.239zm12.239-9.238v-49.834a10.79 10.79 0 0 1 10.778-10.778h68.67v60.614a9.246 9.246 0 0 1 -9.236 9.235h-74.432a12.215 12.215 0 0 0 4.22-9.238zm3.827 111.029v-42.087h19.924l3.618 12.167a1.5 1.5 0 0 0 1.438 1.072h25.337v28.848zm130.548 0h-50.317v-42.087h19.927l3.617 12.167a1.5 1.5 0 0 0 1.438 1.072h25.335zm-30.158-64.786a3.5 3.5 0 0 1 3.5 3.5v21.231l-1.177-3.96a1.5 1.5 0 0 0 -1.438-1.072h-22.544a1.5 1.5 0 0 0 -1.5 1.5v43.587h-23.915v-30.348a1.5 1.5 0 0 0 -1.5-1.5h-25.229a1.484 1.484 0 0 0 .071-.433v-32.505zm-150.463 0h73.731v24.731l-1.177-3.959a1.5 1.5 0 0 0 -1.438-1.072h-22.543a1.5 1.5 0 0 0 -1.5 1.5v43.587h-23.915v-30.349a1.5 1.5 0 0 0 -1.5-1.5h-25.158v-29.438a3.5 3.5 0 0 1 3.5-3.5zm-30.158 22.7h19.924l3.617 12.167a1.5 1.5 0 0 0 1.438 1.072h25.337v28.848h-50.317z"/><path d="m99.859 40.641h57.824a1.5 1.5 0 0 0 0-3h-57.824a1.5 1.5 0 1 0 0 3z"/><path d="m160.19 83.87a22.685 22.685 0 0 0 -21.906-22.643l3.4-3.4a1.5 1.5 0 0 0 -2.121-2.121l-5.939 5.939a1.5 1.5 0 0 0 0 2.121l5.939 5.939a1.5 1.5 0 0 0 2.121-2.121l-3.338-3.337a19.65 19.65 0 1 1 -18.229 28.758 1.5 1.5 0 0 0 -2.655 1.4 22.664 22.664 0 0 0 42.728-10.535z"/></g></g><g transform="matrix(0.3515625 0 0 0.3515625 217.5 217.5)" id="L1_72"><rect x="18px" y="31px" width="219px" height="151px" fill="#cecece"/><path d="m28.37 168.724v-123.776a13.681 13.681 0 0 1 13.665-13.665h-10a13.681 13.681 0 0 0 -13.665 13.665v123.776a13.681 13.681 0 0 0 13.665 13.665h10a13.681 13.681 0 0 1 -13.665-13.665z" fill="#afafaf"/><path d="m227.63 168.724v-123.776a13.681 13.681 0 0 0 -13.665-13.665h10a13.681 13.681 0 0 1 13.665 13.665v123.776a13.681 13.681 0 0 1 -13.665 13.665h-10a13.681 13.681 0 0 0 13.665-13.665z" fill="#e2e2e2"/><rect x="26px" y="39px" width="202px" height="122px" fill="#63bce7"/><path d="m36.779 156.724v-111.777a5.271 5.271 0 0 1 5.256-5.256h-10a5.271 5.271 0 0 0 -5.256 5.256v111.777a5.271 5.271 0 0 0 5.256 5.256h10a5.271 5.271 0 0 1 -5.256-5.256z" fill="#6377e7"/><path d="m219.221 156.724v-111.777a5.271 5.271 0 0 0 -5.256-5.256h10a5.271 5.271 0 0 1 5.256 5.256v111.777a5.271 5.271 0 0 1 -5.256 5.256h-10a5.271 5.271 0 0 0 5.256-5.256z" fill="#63e2e7"/><path d="m89.809 204.547h76.383v9.197h-76.383z" fill="#9e9e9e"/><path d="m89.809 204.547h10v9.197h-10z" fill="#707070"/><path d="m100.67 182.389h54.659v22.158h-54.659z" fill="#cecece"/><path d="m100.67 182.389h10v22.158h-10z" fill="#afafaf"/><circle cx="128" cy="172" r="4" fill="#9e9e9e"/><path d="m179.918 93.193a27.481 27.481 0 0 0 -35.943-17.776 36.54 36.54 0 0 0 -69.065 16.65c0 .5.018 1 .038 1.492a27.044 27.044 0 0 0 -18.183 25.547 27.039 27.039 0 0 0 27.035 27.04h88.4a27.039 27.039 0 0 0 27.039-27.039 27.046 27.046 0 0 0 -19.321-25.914z" fill="#cecece"/><path d="m137.835 83.732a5.858 5.858 0 0 0 -7.545 3.421l-15.547 41.347a5.858 5.858 0 1 0 10.966 4.123l15.548-41.343a5.858 5.858 0 0 0 -3.422-7.548z" fill="#f8af23"/><path d="m107.2 94.06a5.859 5.859 0 0 0 -8.284 0l-11.687 11.685a5.858 5.858 0 0 0 0 8.284l11.684 11.684a5.858 5.858 0 1 0 8.284-8.284l-7.542-7.542 7.542-7.542a5.858 5.858 0 0 0 .003-8.285z" fill="#f8af23"/><path d="m168.771 105.745-11.684-11.685a5.858 5.858 0 1 0 -8.284 8.284l7.542 7.542-7.542 7.542a5.858 5.858 0 0 0 8.284 8.284l11.684-11.684a5.858 5.858 0 0 0 0-8.283z" fill="#f8af23"/><g fill="#3f3679"><path d="m230.721 156.724v-111.777a6.764 6.764 0 0 0 -6.756-6.756h-191.93a6.764 6.764 0 0 0 -6.756 6.756v111.777a6.763 6.763 0 0 0 6.756 6.755h191.93a6.763 6.763 0 0 0 6.756-6.755zm-202.442 0v-111.777a3.76 3.76 0 0 1 3.756-3.756h191.93a3.76 3.76 0 0 1 3.756 3.756v111.777a3.76 3.76 0 0 1 -3.756 3.755h-191.93a3.76 3.76 0 0 1 -3.756-3.755z"/><path d="m128 166.184a6 6 0 1 0 6 6 6.007 6.007 0 0 0 -6-6zm0 9a3 3 0 1 1 3-3 3 3 0 0 1 -3 3z"/><path d="m27.323 223.217h-18a1.5 1.5 0 1 0 0 3h18a1.5 1.5 0 1 0 0-3z"/><path d="m246.68 223.217h-18a1.5 1.5 0 0 0 0 3h18a1.5 1.5 0 1 0 0-3z"/><path d="m218.479 223.217h-180.958a1.5 1.5 0 0 0 0 3h180.958a1.5 1.5 0 0 0 0-3z"/><path d="m9.32 215.244h237.36a1.5 1.5 0 0 0 0-3h-78.989v-7.7a1.5 1.5 0 0 0 -1.5-1.5h-9.361v-19.155h67.136a15.182 15.182 0 0 0 15.165-15.165v-123.776a15.182 15.182 0 0 0 -15.165-15.165h-191.931a15.182 15.182 0 0 0 -15.165 15.165v123.776a15.182 15.182 0 0 0 15.165 15.165h67.135v19.158h-9.361a1.5 1.5 0 0 0 -1.5 1.5v7.7h-78.989a1.5 1.5 0 1 0 0 3zm10.55-46.52v-123.776a12.179 12.179 0 0 1 12.165-12.165h191.93a12.179 12.179 0 0 1 12.165 12.165v123.776a12.178 12.178 0 0 1 -12.165 12.165h-191.93a12.178 12.178 0 0 1 -12.165-12.165zm82.3 15.165h51.66v19.158h-51.66zm-10.861 22.158h73.383v6.2h-73.383z"/><path d="m181.112 92a29.172 29.172 0 0 0 -27.491-19.83 28.87 28.87 0 0 0 -8.928 1.407 38.039 38.039 0 0 0 -71.283 18.49q0 .23 0 .458a28.539 28.539 0 0 0 10.39 55.12h88.4a28.539 28.539 0 0 0 8.912-55.645zm-8.916 52.65h-88.396a25.539 25.539 0 0 1 -8.365-49.669 1.5 1.5 0 0 0 1.011-1.481c-.019-.476-.036-.951-.036-1.431a35.04 35.04 0 0 1 66.231-15.969 1.5 1.5 0 0 0 1.861.72 25.871 25.871 0 0 1 9.119-1.65 26.14 26.14 0 0 1 24.861 18.456 1.5 1.5 0 0 0 1.008 1 25.54 25.54 0 0 1 -7.294 50.015z"/><path d="m108.258 93a7.369 7.369 0 0 0 -10.405 0l-11.685 11.684a7.365 7.365 0 0 0 0 10.405l11.684 11.685a7.358 7.358 0 0 0 10.405-10.406l-6.481-6.481 6.481-6.482a7.365 7.365 0 0 0 .001-10.405zm-2.121 8.284-7.542 7.542a1.5 1.5 0 0 0 0 2.121l7.542 7.542a4.358 4.358 0 0 1 -6.163 6.163l-11.684-11.684a4.363 4.363 0 0 1 0-6.163l11.684-11.684a4.358 4.358 0 1 1 6.163 6.163z"/><path d="m158.147 93a7.358 7.358 0 0 0 -10.405 10.4l6.481 6.482-6.481 6.481a7.358 7.358 0 1 0 10.405 10.405l11.684-11.684a7.365 7.365 0 0 0 0-10.405zm9.563 19.969-11.684 11.684a4.358 4.358 0 1 1 -6.163-6.163l7.542-7.542a1.5 1.5 0 0 0 0-2.121l-7.542-7.542a4.358 4.358 0 0 1 6.163-6.163l11.684 11.685a4.363 4.363 0 0 1 0 6.161z"/><path d="m138.363 82.329a7.366 7.366 0 0 0 -9.476 4.3l-15.548 41.343a7.358 7.358 0 1 0 13.774 5.179l15.548-41.351a7.366 7.366 0 0 0 -4.298-9.471zm1.49 8.42-15.548 41.342a4.358 4.358 0 1 1 -8.158-3.067l15.548-41.342a4.358 4.358 0 1 1 8.158 3.067z"/></g></g><g transform="matrix(0.1953125 0 0 0.1953125 62.5 237.5)" id="L1_73"><path d="m216.152 209.993h-176.304a7.5 7.5 0 0 1 -7.5-7.5v-159.959a7.5 7.5 0 0 1 7.5-7.5h176.3a7.5 7.5 0 0 1 7.5 7.5v159.959a7.5 7.5 0 0 1 -7.496 7.5zm-168.8-15h161.3v-144.959h-161.304z" fill="#cecece"/><path d="m42.348 202.493v-159.959a7.5 7.5 0 0 1 7.5-7.5h-10a7.5 7.5 0 0 0 -7.5 7.5v159.959a7.5 7.5 0 0 0 7.5 7.5h10a7.5 7.5 0 0 1 -7.5-7.5z" fill="#afafaf"/><path d="m213.652 202.493v-159.959a7.5 7.5 0 0 0 -7.5-7.5h10a7.5 7.5 0 0 1 7.5 7.5v159.959a7.5 7.5 0 0 1 -7.5 7.5h-10a7.5 7.5 0 0 0 7.5-7.5z" fill="#e2e2e2"/><circle cx="216" cy="106" r="13" fill="#9e9e9e"/><path d="m214.841 119.186h2.624a16.75 16.75 0 0 1 16.75 16.75v16.142a0 0 0 0 1 0 0h-36.124a0 0 0 0 1 0 0v-16.142a16.75 16.75 0 0 1 16.75-16.75z" fill="#f46275"/><path d="m219.271 106.068a13.119 13.119 0 0 1 -8.119 12.127 13.119 13.119 0 1 0 0-24.253 13.119 13.119 0 0 1 8.119 12.126z" fill="#cecece"/><path d="m217.464 119.186h-2.624a16.752 16.752 0 0 0 -3.688.421 16.746 16.746 0 0 1 13.062 16.329v16.142h10v-16.142a16.75 16.75 0 0 0 -16.75-16.75z" fill="#f48875"/><circle cx="39" cy="106" r="13" fill="#9e9e9e"/><path d="m38.536 119.186h2.624a16.75 16.75 0 0 1 16.75 16.75v16.142a0 0 0 0 1 0 0h-36.124a0 0 0 0 1 0 0v-16.142a16.75 16.75 0 0 1 16.75-16.75z" fill="#9e9e9e"/><path d="m36.729 106.068a13.119 13.119 0 0 1 8.119-12.126 13.118 13.118 0 1 0 0 24.253 13.119 13.119 0 0 1 -8.119-12.127z" fill="#707070"/><path d="m44.848 119.607a16.753 16.753 0 0 0 -3.688-.421h-2.624a16.75 16.75 0 0 0 -16.75 16.75v16.142h10v-16.142a16.747 16.747 0 0 1 13.062-16.329z" fill="#707070"/><circle cx="128" cy="26" r="13" fill="#9e9e9e"/><path d="m126.688 39.207h2.624a16.75 16.75 0 0 1 16.75 16.75v16.143a0 0 0 0 1 0 0h-36.124a0 0 0 0 1 0 0v-16.143a16.75 16.75 0 0 1 16.75-16.75z" fill="#f8af23"/><path d="m124.881 26.088a13.119 13.119 0 0 1 8.119-12.126 13.118 13.118 0 1 0 0 24.253 13.119 13.119 0 0 1 -8.119-12.127z" fill="#707070"/><path d="m133 39.628a16.753 16.753 0 0 0 -3.688-.421h-2.624a16.75 16.75 0 0 0 -16.75 16.75v16.143h10v-16.143a16.747 16.747 0 0 1 13.062-16.329z" fill="#f87023"/><circle cx="128" cy="186" r="13" fill="#9e9e9e"/><path d="m126.688 199.166h2.624a16.75 16.75 0 0 1 16.75 16.75v16.142a0 0 0 0 1 0 0h-36.124a0 0 0 0 1 0 0v-16.142a16.75 16.75 0 0 1 16.75-16.75z" fill="#63bce7"/><path d="m124.881 186.047a13.119 13.119 0 0 1 8.119-12.126 13.118 13.118 0 1 0 0 24.253 13.119 13.119 0 0 1 -8.119-12.127z" fill="#707070"/><path d="m133 199.587a16.753 16.753 0 0 0 -3.688-.421h-2.624a16.75 16.75 0 0 0 -16.75 16.75v16.142h10v-16.142a16.747 16.747 0 0 1 13.062-16.329z" fill="#6377e7"/><circle cx="128" cy="122" r="24" fill="#63bce7"/><path d="m113.833 122.513a24.173 24.173 0 0 1 19.167-23.645 24.167 24.167 0 1 0 0 47.292 24.174 24.174 0 0 1 -19.167-23.647z" fill="#6377e7"/><g fill="#3f3679"><path d="m27.323 241.53h-18a1.5 1.5 0 1 0 0 3h18a1.5 1.5 0 0 0 0-3z"/><path d="m246.68 241.53h-18a1.5 1.5 0 1 0 0 3h18a1.5 1.5 0 0 0 0-3z"/><path d="m218.479 241.53h-180.958a1.5 1.5 0 1 0 0 3h180.958a1.5 1.5 0 1 0 0-3z"/><path d="m9.32 233.558h237.36a1.5 1.5 0 0 0 0-3h-99.118v-14.642a18.168 18.168 0 0 0 -.565-4.423h69.155a9.01 9.01 0 0 0 9-9v-48.915h9.062a1.5 1.5 0 0 0 1.5-1.5v-16.141a18.257 18.257 0 0 0 -10.562-16.528v-1.845a14.569 14.569 0 0 0 0-22.992v-52.038a9.01 9.01 0 0 0 -9-9h-75.6a14.619 14.619 0 1 0 -25.114 0h-75.59a9.01 9.01 0 0 0 -9 9v52.038a14.57 14.57 0 0 0 0 22.992v1.845a18.257 18.257 0 0 0 -10.562 16.528v16.142a1.5 1.5 0 0 0 1.5 1.5h9.062v48.915a9.01 9.01 0 0 0 9 9h69.152a18.168 18.168 0 0 0 -.565 4.423v14.642h-99.115a1.5 1.5 0 1 0 0 3zm212.833-31.064a6.007 6.007 0 0 1 -6 6h-70.185a18.324 18.324 0 0 0 -10.67-9.8 14.7 14.7 0 0 0 2.909-2.2h70.446a1.5 1.5 0 0 0 1.5-1.5v-41.416h12zm-105.772-16.447a11.618 11.618 0 1 1 11.619 11.619 11.631 11.631 0 0 1 -11.619-11.619zm-67.533-32.469h9.062a1.5 1.5 0 0 0 1.5-1.5v-16.141a18.154 18.154 0 0 0 -4.464-11.923h47.436a25.7 25.7 0 0 0 24.119 24.12v23.372a14.586 14.586 0 0 0 -11.057 21.988h-66.596zm0-36.015a14.57 14.57 0 0 0 0-22.992v-43.037h60.152a18.168 18.168 0 0 0 -.565 4.423v16.143a1.5 1.5 0 0 0 1.5 1.5h16.565v23.3a25.7 25.7 0 0 0 -24.119 24.12h-50.713c-.011 0-.021 0-.032 0a18.255 18.255 0 0 0 -2.788-1.609zm80.464-76.856a15.267 15.267 0 0 1 15.25 15.25v14.643h-33.124v-14.643a15.267 15.267 0 0 1 15.25-15.25zm77.841 53.865a14.57 14.57 0 0 0 0 22.991v1.845a18.253 18.253 0 0 0 -2.788 1.608c-.011 0-.021 0-.031 0h-50.714a25.7 25.7 0 0 0 -24.12-24.12v-23.296h16.562a1.5 1.5 0 0 0 1.5-1.5v-16.143a18.168 18.168 0 0 0 -.562-4.423h60.155zm-9.062 59.006h9.062v39.915h-66.6a14.586 14.586 0 0 0 -11.053-21.988v-23.372a25.7 25.7 0 0 0 24.12-24.12h47.435a18.154 18.154 0 0 0 -4.464 11.923v16.142a1.5 1.5 0 0 0 1.5 1.5zm-70.091-53.731a22.667 22.667 0 1 1 -22.667 22.667 22.692 22.692 0 0 1 22.667-22.667zm104.714 36.09v14.642h-33.123v-14.642a15.267 15.267 0 0 1 15.25-15.25h2.623a15.267 15.267 0 0 1 15.25 15.25zm-4.942-29.869a11.619 11.619 0 1 1 -11.619-11.618 11.632 11.632 0 0 1 11.618 11.617zm-5.619-63.533v50.217a14.468 14.468 0 0 0 -12 0v-42.718a1.5 1.5 0 0 0 -1.5-1.5h-62.685a18.324 18.324 0 0 0 -10.67-9.8 14.7 14.7 0 0 0 2.909-2.2h77.946a6.007 6.007 0 0 1 5.999 6zm-94.153-28.065a11.619 11.619 0 1 1 -11.619 11.618 11.631 11.631 0 0 1 11.619-11.618zm-94.152 28.064a6.007 6.007 0 0 1 6-6h77.946a14.7 14.7 0 0 0 2.909 2.2 18.325 18.325 0 0 0 -10.671 9.8h-62.684a1.5 1.5 0 0 0 -1.5 1.5v42.718a14.468 14.468 0 0 0 -12 0zm-5.619 63.533a11.619 11.619 0 1 1 11.619 11.619 11.631 11.631 0 0 1 -11.619-11.619zm-4.943 29.869a15.267 15.267 0 0 1 15.25-15.25h2.624a15.267 15.267 0 0 1 15.25 15.25v14.642h-33.124zm16.562 72.557a6.007 6.007 0 0 1 -6-6v-48.915h12v41.415a1.5 1.5 0 0 0 1.5 1.5h70.446a14.7 14.7 0 0 0 2.909 2.2 18.325 18.325 0 0 0 -10.671 9.8zm71.59 7.423a15.267 15.267 0 0 1 15.25-15.25h2.624a15.267 15.267 0 0 1 15.25 15.25v14.642h-33.124z"/></g></g><g transform="matrix(0.078125 0 0 0.078125 77.5 340)" id="L1_74"><rect x="18px" y="48px" width="219px" height="151px" fill="#cecece"/><path d="m28.37 186.109v-123.776a13.681 13.681 0 0 1 13.665-13.665h-10a13.681 13.681 0 0 0 -13.665 13.665v123.776a13.681 13.681 0 0 0 13.665 13.665h10a13.681 13.681 0 0 1 -13.665-13.665z" fill="#afafaf"/><path d="m227.63 186.109v-123.776a13.681 13.681 0 0 0 -13.665-13.665h10a13.681 13.681 0 0 1 13.665 13.665v123.776a13.681 13.681 0 0 1 -13.665 13.665h-10a13.681 13.681 0 0 0 13.665-13.665z" fill="#e2e2e2"/><rect x="26px" y="57px" width="202px" height="122px" fill="#63bce7"/><path d="m36.779 174.109v-111.776a5.271 5.271 0 0 1 5.256-5.256h-10a5.271 5.271 0 0 0 -5.256 5.256v111.776a5.271 5.271 0 0 0 5.256 5.256h10a5.271 5.271 0 0 1 -5.256-5.256z" fill="#6377e7"/><path d="m219.221 174.109v-111.776a5.271 5.271 0 0 0 -5.256-5.256h10a5.271 5.271 0 0 1 5.256 5.256v111.776a5.271 5.271 0 0 1 -5.256 5.256h-10a5.271 5.271 0 0 0 5.256-5.256z" fill="#63e2e7"/><path d="m89.809 221.932h76.383v9.197h-76.383z" fill="#9e9e9e"/><path d="m89.809 221.932h10v9.197h-10z" fill="#707070"/><path d="m100.67 199.774h54.659v22.158h-54.659z" fill="#cecece"/><path d="m100.67 199.774h10v22.158h-10z" fill="#afafaf"/><circle cx="128" cy="189" r="4" fill="#9e9e9e"/><path d="m48.667 138.835h33.667v23.333h-33.667z" fill="#f8af23"/><path d="m111.167 138.835h33.667v23.333h-33.667z" fill="#f8af23"/><path d="m173.667 138.835h33.667v23.333h-33.667z" fill="#f8af23"/><path d="m193.021 79.217a24.794 24.794 0 0 0 -28.424-28.4c0-.106.008-.21.008-.315a36.605 36.605 0 0 0 -73.21 0c0 .106.007.21.008.315a24.8 24.8 0 0 0 -28.424 28.4 18.893 18.893 0 0 0 -9.668 16.483 18.908 18.908 0 0 0 18.908 18.908h111.563a18.908 18.908 0 0 0 18.907-18.908 18.892 18.892 0 0 0 -9.668-16.483z" fill="#cecece"/><path d="m63.311 95.7a18.894 18.894 0 0 1 9.668-16.488 24.8 24.8 0 0 1 28.424-28.4c0-.105-.008-.209-.008-.315a36.606 36.606 0 0 1 31.605-36.251 36.568 36.568 0 0 0 -41.605 36.254c0 .105.007.209.008.315a24.8 24.8 0 0 0 -28.424 28.4 18.9 18.9 0 0 0 9.24 35.4h10a18.908 18.908 0 0 1 -18.908-18.915z" fill="#afafaf"/><path d="m192.689 95.7a18.894 18.894 0 0 0 -9.668-16.488 24.8 24.8 0 0 0 -28.424-28.4c0-.105.008-.209.008-.315a36.606 36.606 0 0 0 -31.605-36.251 36.568 36.568 0 0 1 41.605 36.254c0 .105-.007.209-.008.315a24.8 24.8 0 0 1 28.424 28.4 18.9 18.9 0 0 1 -9.24 35.4h-10a18.908 18.908 0 0 0 18.908-18.915z" fill="#e2e2e2"/><g fill="#3f3679"><path d="m128 195.569a6 6 0 1 0 -6-6 6.007 6.007 0 0 0 6 6zm0-9a3 3 0 1 1 -3 3 3 3 0 0 1 3-3z"/><path d="m27.323 240.6h-18a1.5 1.5 0 0 0 0 3h18a1.5 1.5 0 0 0 0-3z"/><path d="m246.68 240.6h-18a1.5 1.5 0 1 0 0 3h18a1.5 1.5 0 0 0 0-3z"/><path d="m218.479 240.6h-180.958a1.5 1.5 0 1 0 0 3h180.958a1.5 1.5 0 1 0 0-3z"/><path d="m9.32 232.63h237.36a1.5 1.5 0 0 0 0-3h-78.989v-7.7a1.5 1.5 0 0 0 -1.5-1.5h-9.362v-19.156h67.137a15.182 15.182 0 0 0 15.164-15.165v-123.776a15.182 15.182 0 0 0 -15.164-15.165h-58.006a38.106 38.106 0 0 0 -75.92 0h-58.006a15.182 15.182 0 0 0 -15.164 15.165v123.776a15.182 15.182 0 0 0 15.164 15.165h67.137v19.157h-9.362a1.5 1.5 0 0 0 -1.5 1.5v7.7h-78.989a1.5 1.5 0 0 0 0 3zm118.68-217.23a35.145 35.145 0 0 1 35.105 35.1l-.008.315a1.5 1.5 0 0 0 1.738 1.481 23.295 23.295 0 0 1 26.7 26.682 1.5 1.5 0 0 0 .747 1.543 17.4 17.4 0 0 1 -8.5 32.588h-111.563a17.4 17.4 0 0 1 -8.506-32.588 1.5 1.5 0 0 0 .747-1.542 23.711 23.711 0 0 1 -.292-3.686 23.292 23.292 0 0 1 27-23 1.5 1.5 0 0 0 1.732-1.493l-.009-.3a35.145 35.145 0 0 1 35.109-35.1zm-66.644 63.038a20.4 20.4 0 0 0 10.862 37.675h54.282v21.223h-15.333a1.5 1.5 0 0 0 -1.5 1.5v10.164h-25.834v-10.165a1.5 1.5 0 0 0 -1.5-1.5h-33.666a1.5 1.5 0 0 0 -1.5 1.5v23.333a1.5 1.5 0 0 0 1.5 1.5h33.666a1.5 1.5 0 0 0 1.5-1.5v-10.168h25.834v10.167a1.5 1.5 0 0 0 1.5 1.5h33.666a1.5 1.5 0 0 0 1.5-1.5v-10.167h25.834v10.167a1.5 1.5 0 0 0 1.5 1.5h33.666a1.5 1.5 0 0 0 1.5-1.5v-23.332a1.5 1.5 0 0 0 -1.5-1.5h-33.666a1.5 1.5 0 0 0 -1.5 1.5v10.165h-25.834v-10.165a1.5 1.5 0 0 0 -1.5-1.5h-15.333v-21.223h54.281a20.4 20.4 0 0 0 10.862-37.675 26.518 26.518 0 0 0 .188-3.141 26.174 26.174 0 0 0 -6.015-16.72h35.149a3.76 3.76 0 0 1 3.755 3.756v111.777a3.76 3.76 0 0 1 -3.755 3.756h-191.931a3.76 3.76 0 0 1 -3.755-3.756v-111.776a3.76 3.76 0 0 1 3.755-3.756h35.149a26.174 26.174 0 0 0 -6.015 16.723 26.555 26.555 0 0 0 .188 3.138zm81.977 82.23h-30.666v-20.333h30.666zm-62.5-20.333v20.333h-30.666v-20.333zm94.334 0h30.666v20.333h-30.666zm-155.297 45.774v-123.776a12.178 12.178 0 0 1 12.164-12.165h47.685a26.284 26.284 0 0 0 -9.628 5.415c-.02 0-.039-.006-.06-.006h-38a6.763 6.763 0 0 0 -6.755 6.756v111.776a6.763 6.763 0 0 0 6.755 6.756h191.935a6.763 6.763 0 0 0 6.755-6.756v-111.776a6.763 6.763 0 0 0 -6.755-6.756h-38.066a26.281 26.281 0 0 0 -9.621-5.409h47.684a12.178 12.178 0 0 1 12.167 12.165v123.776a12.178 12.178 0 0 1 -12.164 12.165h-191.932a12.178 12.178 0 0 1 -12.164-12.165zm82.3 15.165h51.658v19.157h-51.657zm-10.861 22.158h73.383v6.2h-73.383z"/></g></g><g transform="matrix(0.15625 0 0 0.15625 155 330)" id="L1_75"><rect x="18px" y="31px" width="219px" height="151px" fill="#cecece"/><path d="m28.37 168.724v-123.776a13.681 13.681 0 0 1 13.665-13.665h-10a13.681 13.681 0 0 0 -13.665 13.665v123.776a13.681 13.681 0 0 0 13.665 13.665h10a13.681 13.681 0 0 1 -13.665-13.665z" fill="#afafaf"/><path d="m227.63 168.724v-123.776a13.681 13.681 0 0 0 -13.665-13.665h10a13.681 13.681 0 0 1 13.665 13.665v123.776a13.681 13.681 0 0 1 -13.665 13.665h-10a13.681 13.681 0 0 0 13.665-13.665z" fill="#e2e2e2"/><rect x="26px" y="39px" width="202px" height="122px" fill="#63bce7"/><path d="m36.779 156.724v-111.777a5.271 5.271 0 0 1 5.256-5.256h-10a5.271 5.271 0 0 0 -5.256 5.256v111.777a5.271 5.271 0 0 0 5.256 5.256h10a5.271 5.271 0 0 1 -5.256-5.256z" fill="#6377e7"/><path d="m219.221 156.724v-111.777a5.271 5.271 0 0 0 -5.256-5.256h10a5.271 5.271 0 0 1 5.256 5.256v111.777a5.271 5.271 0 0 1 -5.256 5.256h-10a5.271 5.271 0 0 0 5.256-5.256z" fill="#63e2e7"/><path d="m89.809 204.547h76.383v9.197h-76.383z" fill="#9e9e9e"/><path d="m89.809 204.547h10v9.197h-10z" fill="#707070"/><path d="m100.67 182.389h54.659v22.158h-54.659z" fill="#cecece"/><path d="m100.67 182.389h10v22.158h-10z" fill="#afafaf"/><circle cx="128" cy="172" r="4" fill="#9e9e9e"/><rect x="102px" y="54px" width="52px" height="90px" fill="#cecece"/><rect x="41px" y="54px" width="52px" height="90px" fill="#cecece"/><rect x="162px" y="54px" width="52px" height="90px" fill="#cecece"/><path d="m48.098 71.726h38v18.75h-38z" fill="#f8af23"/><path d="m109 71.726h38v18.75h-38z" fill="#f46275"/><path d="m169.902 71.726h38v18.75h-38z" fill="#f8af23"/><path d="m109 96.726h19.667v34.6h-19.667z" fill="#f46275"/><path d="m169.902 96.726h19.667v17.75h-19.667z" fill="#f8af23"/><path d="m48.098 96.726h38v18.75h-38z" fill="#f8af23"/><g fill="#3f3679"><path d="m230.721 156.724v-111.777a6.764 6.764 0 0 0 -6.756-6.756h-191.93a6.764 6.764 0 0 0 -6.756 6.756v111.777a6.763 6.763 0 0 0 6.756 6.755h191.93a6.763 6.763 0 0 0 6.756-6.755zm-202.442 0v-111.777a3.76 3.76 0 0 1 3.756-3.756h191.93a3.76 3.76 0 0 1 3.756 3.756v111.777a3.76 3.76 0 0 1 -3.756 3.755h-191.93a3.76 3.76 0 0 1 -3.756-3.755z"/><path d="m128 166.184a6 6 0 1 0 6 6 6.007 6.007 0 0 0 -6-6zm0 9a3 3 0 1 1 3-3 3 3 0 0 1 -3 3z"/><path d="m27.323 223.217h-18a1.5 1.5 0 1 0 0 3h18a1.5 1.5 0 1 0 0-3z"/><path d="m246.68 223.217h-18a1.5 1.5 0 0 0 0 3h18a1.5 1.5 0 1 0 0-3z"/><path d="m218.479 223.217h-180.958a1.5 1.5 0 0 0 0 3h180.958a1.5 1.5 0 0 0 0-3z"/><path d="m9.32 215.244h237.36a1.5 1.5 0 0 0 0-3h-78.989v-7.7a1.5 1.5 0 0 0 -1.5-1.5h-9.361v-19.155h67.136a15.182 15.182 0 0 0 15.165-15.165v-123.776a15.182 15.182 0 0 0 -15.165-15.165h-191.931a15.182 15.182 0 0 0 -15.165 15.165v123.776a15.182 15.182 0 0 0 15.165 15.165h67.135v19.158h-9.361a1.5 1.5 0 0 0 -1.5 1.5v7.7h-78.989a1.5 1.5 0 1 0 0 3zm10.55-46.52v-123.776a12.179 12.179 0 0 1 12.165-12.165h191.93a12.179 12.179 0 0 1 12.165 12.165v123.776a12.178 12.178 0 0 1 -12.165 12.165h-191.93a12.178 12.178 0 0 1 -12.165-12.165zm82.3 15.165h51.66v19.158h-51.66zm-10.861 22.158h73.383v6.2h-73.383z"/><path d="m149 52.976h-42a6.508 6.508 0 0 0 -6.5 6.5v80.333a6.508 6.508 0 0 0 6.5 6.5h42a6.508 6.508 0 0 0 6.5-6.5v-80.333a6.508 6.508 0 0 0 -6.5-6.5zm3.5 86.833a3.5 3.5 0 0 1 -3.5 3.5h-42a3.5 3.5 0 0 1 -3.5-3.5v-80.333a3.5 3.5 0 0 1 3.5-3.5h42a3.5 3.5 0 0 1 3.5 3.5z"/><path d="m88.1 52.976h-42a6.508 6.508 0 0 0 -6.5 6.5v80.333a6.508 6.508 0 0 0 6.5 6.5h42a6.508 6.508 0 0 0 6.5-6.5v-80.333a6.508 6.508 0 0 0 -6.5-6.5zm3.5 86.833a3.5 3.5 0 0 1 -3.5 3.5h-42a3.5 3.5 0 0 1 -3.5-3.5v-80.333a3.5 3.5 0 0 1 3.5-3.5h42a3.5 3.5 0 0 1 3.5 3.5z"/><path d="m209.9 52.976h-42a6.508 6.508 0 0 0 -6.5 6.5v80.333a6.508 6.508 0 0 0 6.5 6.5h42a6.508 6.508 0 0 0 6.5-6.5v-80.333a6.508 6.508 0 0 0 -6.5-6.5zm3.5 86.833a3.5 3.5 0 0 1 -3.5 3.5h-42a3.5 3.5 0 0 1 -3.5-3.5v-80.333a3.5 3.5 0 0 1 3.5-3.5h42a3.5 3.5 0 0 1 3.5 3.5z"/><path d="m147 70.226h-38a1.5 1.5 0 0 0 -1.5 1.5v18.75a1.5 1.5 0 0 0 1.5 1.5h38a1.5 1.5 0 0 0 1.5-1.5v-18.75a1.5 1.5 0 0 0 -1.5-1.5zm-1.5 18.75h-35v-15.75h35z"/><path d="m128.667 95.226h-19.667a1.5 1.5 0 0 0 -1.5 1.5v34.6a1.5 1.5 0 0 0 1.5 1.5h19.667a1.5 1.5 0 0 0 1.5-1.5v-34.6a1.5 1.5 0 0 0 -1.5-1.5zm-1.5 34.6h-16.667v-31.6h16.667z"/><path d="m207.9 70.226h-38a1.5 1.5 0 0 0 -1.5 1.5v18.75a1.5 1.5 0 0 0 1.5 1.5h38a1.5 1.5 0 0 0 1.5-1.5v-18.75a1.5 1.5 0 0 0 -1.5-1.5zm-1.5 18.75h-35v-15.75h35z"/><path d="m189.569 95.226h-19.669a1.5 1.5 0 0 0 -1.5 1.5v17.75a1.5 1.5 0 0 0 1.5 1.5h19.667a1.5 1.5 0 0 0 1.5-1.5v-17.75a1.5 1.5 0 0 0 -1.498-1.5zm-1.5 17.75h-16.669v-14.75h16.667z"/><path d="m86.1 70.226h-38a1.5 1.5 0 0 0 -1.5 1.5v18.75a1.5 1.5 0 0 0 1.5 1.5h38a1.5 1.5 0 0 0 1.5-1.5v-18.75a1.5 1.5 0 0 0 -1.5-1.5zm-1.5 18.75h-35v-15.75h35z"/><path d="m86.1 95.226h-38a1.5 1.5 0 0 0 -1.5 1.5v18.75a1.5 1.5 0 0 0 1.5 1.5h38a1.5 1.5 0 0 0 1.5-1.5v-18.75a1.5 1.5 0 0 0 -1.5-1.5zm-1.5 18.75h-35v-15.75h35z"/></g></g><g transform="matrix(0.078125 0 0 0.078125 252.5 340)" id="L1_76"><rect x="18px" y="30px" width="219px" height="151px" fill="#cecece"/><path d="m28.37 167.494v-123.777a13.681 13.681 0 0 1 13.665-13.664h-10a13.681 13.681 0 0 0 -13.665 13.664v123.777a13.681 13.681 0 0 0 13.665 13.665h10a13.681 13.681 0 0 1 -13.665-13.665z" fill="#afafaf"/><path d="m227.63 167.494v-123.777a13.681 13.681 0 0 0 -13.665-13.665h10a13.681 13.681 0 0 1 13.665 13.665v123.777a13.681 13.681 0 0 1 -13.665 13.665h-10a13.681 13.681 0 0 0 13.665-13.665z" fill="#e2e2e2"/><rect x="26px" y="38px" width="202px" height="122px" fill="#63bce7"/><path d="m36.779 155.494v-111.777a5.271 5.271 0 0 1 5.256-5.256h-10a5.271 5.271 0 0 0 -5.256 5.256v111.777a5.271 5.271 0 0 0 5.256 5.256h10a5.271 5.271 0 0 1 -5.256-5.256z" fill="#6377e7"/><path d="m219.221 155.494v-111.777a5.271 5.271 0 0 0 -5.256-5.256h10a5.271 5.271 0 0 1 5.256 5.256v111.777a5.271 5.271 0 0 1 -5.256 5.256h-10a5.271 5.271 0 0 0 5.256-5.256z" fill="#63e2e7"/><path d="m158.867 60.941c-.323.9-.69 1.771-1.09 2.63l8.087 8.087-15.9 15.9-8.087-8.087c-.86.4-1.737.766-2.63 1.09v11.439h-22.484v-11.437c-.894-.323-1.771-.69-2.63-1.09l-8.087 8.087-15.9-15.9 8.087-8.087c-.4-.86-.766-1.728-1.09-2.63h-11.443v-22.484h11.442c.323-.894.69-1.771 1.09-2.63l-8.087-8.087 15.9-15.9 8.087 8.1c.86-.4 1.737-.775 2.63-1.1v-11.437h22.482v11.433c.894.323 1.771.7 2.63 1.1l8.087-8.1 15.9 15.9-8.087 8.087c.4.86.766 1.737 1.09 2.63h11.436v22.486z" fill="#f8af23"/><path d="m108.231 63.572c-.4-.86-.766-1.728-1.09-2.63h-10c.323.9.69 1.771 1.09 2.63l-8.087 8.087 15.9 15.9 5-5-10.9-10.9z" fill="#f87023"/><path d="m108.231 35.829-8.087-8.087 10.9-10.9-5-5-15.9 15.9 8.087 8.087c-.4.86-.766 1.737-1.09 2.63h10c.324-.894.69-1.77 1.09-2.63z" fill="#f87023"/><path d="m85.701 38.459h10v22.482h-10z" fill="#f87023"/><circle cx="128" cy="49" r="14" fill="#f46275"/><circle cx="128" cy="152" r="39" fill="#9e9e9e"/><path d="m98.022 153a39.976 39.976 0 0 1 34.978-39.658 39.978 39.978 0 1 0 0 79.311 39.976 39.976 0 0 1 -34.978-39.653z" fill="#707070"/><path d="m109.249 192.975h37.5a44.65 44.65 0 0 1 44.65 44.65 0 0 0 0 1 0 0h-126.799a0 0 0 0 1 0 0 44.65 44.65 0 0 1 44.65-44.65z" fill="#f46275"/><path d="m119.249 192.975h-10a44.649 44.649 0 0 0 -44.649 44.65h10a44.649 44.649 0 0 1 44.649-44.65z" fill="#f43075"/><g fill="#3f3679"><path d="m27.323 247.1h-18a1.5 1.5 0 1 0 0 3h18a1.5 1.5 0 1 0 0-3z"/><path d="m246.68 247.1h-18a1.5 1.5 0 0 0 0 3h18a1.5 1.5 0 0 0 0-3z"/><path d="m218.479 247.1h-180.958a1.5 1.5 0 0 0 0 3h180.958a1.5 1.5 0 0 0 0-3z"/><path d="m9.32 239.125h237.36a1.5 1.5 0 0 0 0-3h-53.818a46.2 46.2 0 0 0 -46.111-44.649h-3.292a41.588 41.588 0 0 0 13.494-8.817h67.013a15.182 15.182 0 0 0 15.164-15.165v-123.777a15.182 15.182 0 0 0 -15.164-15.165h-56.881a1.478 1.478 0 0 0 -.165-1.873l-15.9-15.9a1.5 1.5 0 0 0 -2.121 0l-7.358 7.358c-.27-.117-.535-.228-.8-.334v-10.403a1.5 1.5 0 0 0 -1.5-1.5h-22.483a1.5 1.5 0 0 0 -1.5 1.5v10.4c-.265.106-.53.218-.8.334l-7.358-7.353a1.544 1.544 0 0 0 -2.121 0l-15.9 15.9a1.478 1.478 0 0 0 -.165 1.873h-56.88a15.182 15.182 0 0 0 -15.164 15.163v123.777a15.182 15.182 0 0 0 15.164 15.165h67.013a41.588 41.588 0 0 0 13.494 8.817h-3.292a46.2 46.2 0 0 0 -46.111 44.649h-53.818a1.5 1.5 0 0 0 0 3zm226.81-195.408v123.777a12.178 12.178 0 0 1 -12.164 12.165h-64.225a41.366 41.366 0 0 0 8.683-17.409h55.541a6.763 6.763 0 0 0 6.755-6.756v-111.777a6.763 6.763 0 0 0 -6.755-6.756h-53.641-.024-10.4c-.106-.264-.218-.529-.335-.8l4.607-4.607h59.8a12.178 12.178 0 0 1 12.158 12.163zm-149.608 109.283a41.626 41.626 0 0 0 .472 6.252h-54.96a3.76 3.76 0 0 1 -3.755-3.756v-111.779a3.76 3.76 0 0 1 3.755-3.756h52.166v20.983a1.5 1.5 0 0 0 1.5 1.5h10.4c.106.264.218.529.335.8l-7.355 7.356a1.5 1.5 0 0 0 0 2.121l15.9 15.9a1.5 1.5 0 0 0 2.121 0l7.358-7.358c.27.116.535.228.8.334v10.403a1.5 1.5 0 0 0 1.5 1.5h22.484a1.5 1.5 0 0 0 1.5-1.5v-10.4c.265-.106.53-.218.8-.334l7.358 7.358a1.544 1.544 0 0 0 2.121 0l15.9-15.9a1.5 1.5 0 0 0 0-2.121l-7.358-7.358c.117-.27.229-.536.335-.8h10.4a1.5 1.5 0 0 0 1.5-1.5v-20.984h52.166a3.76 3.76 0 0 1 3.755 3.756v111.777a3.76 3.76 0 0 1 -3.755 3.756h-54.96a41.479 41.479 0 1 0 -82.483-6.25zm19.517-139.037 7.03 7.03a1.5 1.5 0 0 0 1.7.3c.87-.406 1.69-.749 2.507-1.046a1.5 1.5 0 0 0 .986-1.409v-9.938h19.484v9.934a1.5 1.5 0 0 0 .987 1.41c.813.3 1.633.638 2.506 1.045a1.5 1.5 0 0 0 1.7-.3l7.03-7.03 13.777 13.777-7.029 7.03a1.5 1.5 0 0 0 -.3 1.694c.409.879.751 1.7 1.046 2.507a1.5 1.5 0 0 0 1.409.987h9.928v19.49h-9.935a1.5 1.5 0 0 0 -1.409.987c-.295.808-.637 1.628-1.046 2.508a1.5 1.5 0 0 0 .3 1.694l7.029 7.03-13.778 13.777-7.03-7.03a1.5 1.5 0 0 0 -1.7-.3c-.873.408-1.693.75-2.506 1.045a1.5 1.5 0 0 0 -.987 1.41v9.935h-19.48v-9.933a1.5 1.5 0 0 0 -.986-1.409c-.816-.3-1.637-.64-2.507-1.046a1.5 1.5 0 0 0 -1.7.3l-7.03 7.03-13.773-13.78 7.029-7.03a1.5 1.5 0 0 0 .3-1.694c-.409-.879-.751-1.7-1.046-2.508a1.5 1.5 0 0 0 -1.409-.987h-9.936v-19.484h9.935a1.5 1.5 0 0 0 1.409-.987c.295-.808.637-1.628 1.046-2.507a1.5 1.5 0 0 0 -.3-1.694l-7.029-7.03zm-86.169 153.531v-123.777a12.178 12.178 0 0 1 12.164-12.164h59.8l4.607 4.607c-.117.27-.229.535-.335.8h-10.406a.816.816 0 0 1 -.325 0h-53.341a6.763 6.763 0 0 0 -6.755 6.756v111.778a6.763 6.763 0 0 0 6.755 6.756h55.542a41.367 41.367 0 0 0 8.683 17.409h-64.225a12.178 12.178 0 0 1 -12.164-12.165zm69.652-14.494a38.478 38.478 0 1 1 38.478 38.476 38.521 38.521 0 0 1 -38.478-38.476zm19.727 41.478h37.5a43.2 43.2 0 0 1 43.124 41.649h-123.748a43.2 43.2 0 0 1 43.124-41.651z"/><path d="m128 65.518a15.817 15.817 0 1 0 -15.816-15.818 15.834 15.834 0 0 0 15.816 15.818zm0-28.633a12.817 12.817 0 1 1 -12.816 12.815 12.831 12.831 0 0 1 12.816-12.815z"/></g></g><g transform="matrix(0.15625 0 0 0.15625 67.5 67.5)" id="L1_77"><rect x="18px" y="31px" width="219px" height="151px" fill="#cecece"/><path d="m28.37 168.724v-123.776a13.681 13.681 0 0 1 13.665-13.665h-10a13.681 13.681 0 0 0 -13.665 13.665v123.776a13.681 13.681 0 0 0 13.665 13.665h10a13.681 13.681 0 0 1 -13.665-13.665z" fill="#afafaf"/><path d="m227.63 168.724v-123.776a13.681 13.681 0 0 0 -13.665-13.665h10a13.681 13.681 0 0 1 13.665 13.665v123.776a13.681 13.681 0 0 1 -13.665 13.665h-10a13.681 13.681 0 0 0 13.665-13.665z" fill="#e2e2e2"/><rect x="26px" y="39px" width="202px" height="122px" fill="#63bce7"/><path d="m36.779 156.724v-111.777a5.271 5.271 0 0 1 5.256-5.256h-10a5.271 5.271 0 0 0 -5.256 5.256v111.777a5.271 5.271 0 0 0 5.256 5.256h10a5.271 5.271 0 0 1 -5.256-5.256z" fill="#6377e7"/><path d="m219.221 156.724v-111.777a5.271 5.271 0 0 0 -5.256-5.256h10a5.271 5.271 0 0 1 5.256 5.256v111.777a5.271 5.271 0 0 1 -5.256 5.256h-10a5.271 5.271 0 0 0 5.256-5.256z" fill="#63e2e7"/><path d="m89.809 204.547h76.383v9.197h-76.383z" fill="#9e9e9e"/><path d="m89.809 204.547h10v9.197h-10z" fill="#707070"/><path d="m100.67 182.389h54.659v22.158h-54.659z" fill="#cecece"/><path d="m100.67 182.389h10v22.158h-10z" fill="#afafaf"/><circle cx="128" cy="172" r="4" fill="#9e9e9e"/><path d="m39.407 48.336h42.721v105h-42.721z" fill="#cecece"/><path d="m92.437 48.336h124.157v105h-124.157z" fill="#f8af23"/><g fill="#3f3679"><path d="m230.721 156.724v-111.777a6.763 6.763 0 0 0 -6.756-6.756h-191.93a6.763 6.763 0 0 0 -6.756 6.756v111.777a6.763 6.763 0 0 0 6.756 6.756h191.93a6.763 6.763 0 0 0 6.756-6.756zm-202.442 0v-111.777a3.76 3.76 0 0 1 3.756-3.756h191.93a3.76 3.76 0 0 1 3.756 3.756v111.777a3.76 3.76 0 0 1 -3.756 3.756h-191.93a3.76 3.76 0 0 1 -3.756-3.756z"/><path d="m128 166.185a6 6 0 1 0 6 6 6.007 6.007 0 0 0 -6-6zm0 9a3 3 0 1 1 3-3 3 3 0 0 1 -3 3z"/><path d="m27.323 223.217h-18a1.5 1.5 0 1 0 0 3h18a1.5 1.5 0 1 0 0-3z"/><path d="m246.68 223.217h-18a1.5 1.5 0 0 0 0 3h18a1.5 1.5 0 0 0 0-3z"/><path d="m218.479 223.217h-180.958a1.5 1.5 0 0 0 0 3h180.958a1.5 1.5 0 0 0 0-3z"/><path d="m9.32 215.244h237.36a1.5 1.5 0 0 0 0-3h-78.989v-7.7a1.5 1.5 0 0 0 -1.5-1.5h-9.361v-19.155h67.136a15.182 15.182 0 0 0 15.165-15.165v-123.777a15.182 15.182 0 0 0 -15.165-15.164h-191.931a15.182 15.182 0 0 0 -15.165 15.164v123.777a15.182 15.182 0 0 0 15.165 15.165h67.135v19.158h-9.361a1.5 1.5 0 0 0 -1.5 1.5v7.7h-78.989a1.5 1.5 0 1 0 0 3zm10.55-46.521v-123.776a12.178 12.178 0 0 1 12.165-12.164h191.93a12.178 12.178 0 0 1 12.165 12.164v123.777a12.179 12.179 0 0 1 -12.165 12.165h-191.93a12.179 12.179 0 0 1 -12.165-12.165zm82.3 15.165h51.66v19.158h-51.66zm-10.861 22.159h73.383v6.2h-73.383z"/><path d="m82.128 46.836h-42.721a1.5 1.5 0 0 0 -1.5 1.5v105a1.5 1.5 0 0 0 1.5 1.5h42.721a1.5 1.5 0 0 0 1.5-1.5v-105a1.5 1.5 0 0 0 -1.5-1.5zm-1.5 105h-39.721v-102h39.721z"/><path d="m216.593 46.836h-124.156a1.5 1.5 0 0 0 -1.5 1.5v105a1.5 1.5 0 0 0 1.5 1.5h124.156a1.5 1.5 0 0 0 1.5-1.5v-105a1.5 1.5 0 0 0 -1.5-1.5zm-1.5 105h-121.156v-102h121.156z"/><path d="m46.5 60.336h14.267a1.5 1.5 0 0 0 0-3h-14.267a1.5 1.5 0 0 0 0 3z"/><path d="m46.5 70.836h14.267a1.5 1.5 0 0 0 0-3h-14.267a1.5 1.5 0 0 0 0 3z"/><path d="m46.5 81.336h14.267a1.5 1.5 0 0 0 0-3h-14.267a1.5 1.5 0 0 0 0 3z"/><path d="m46.5 91.836h14.267a1.5 1.5 0 0 0 0-3h-14.267a1.5 1.5 0 0 0 0 3z"/><path d="m46.5 102.336h14.267a1.5 1.5 0 0 0 0-3h-14.267a1.5 1.5 0 0 0 0 3z"/><path d="m46.5 112.836h14.267a1.5 1.5 0 0 0 0-3h-14.267a1.5 1.5 0 0 0 0 3z"/><path d="m46.5 123.336h14.267a1.5 1.5 0 0 0 0-3h-14.267a1.5 1.5 0 0 0 0 3z"/><path d="m46.5 133.836h14.267a1.5 1.5 0 0 0 0-3h-14.267a1.5 1.5 0 0 0 0 3z"/><path d="m46.5 144.336h14.267a1.5 1.5 0 0 0 0-3h-14.267a1.5 1.5 0 0 0 0 3z"/><path d="m104.25 60.336h28.25a1.5 1.5 0 0 0 0-3h-28.25a1.5 1.5 0 0 0 0 3z"/><path d="m122 67.75a1.5 1.5 0 0 0 1.5 1.5h72a1.5 1.5 0 0 0 0-3h-72a1.5 1.5 0 0 0 -1.5 1.5z"/><path d="m195.5 75.164h-72a1.5 1.5 0 0 0 0 3h72a1.5 1.5 0 0 0 0-3z"/><path d="m195.5 84.079h-72a1.5 1.5 0 0 0 0 3h72a1.5 1.5 0 0 0 0-3z"/><path d="m104.25 96.593h28.25a1.5 1.5 0 0 0 0-3h-28.25a1.5 1.5 0 0 0 0 3z"/><path d="m195.5 102.507h-72a1.5 1.5 0 0 0 0 3h72a1.5 1.5 0 0 0 0-3z"/><path d="m195.5 111.421h-72a1.5 1.5 0 0 0 0 3h72a1.5 1.5 0 0 0 0-3z"/><path d="m195.5 120.336h-72a1.5 1.5 0 0 0 0 3h72a1.5 1.5 0 0 0 0-3z"/></g></g><g transform="matrix(0.15625 0 0 0.15625 242.5 67.5)" id="L1_78"><rect x="18px" y="57px" width="219px" height="151px" fill="#cecece"/><path d="m28.37 195.147v-123.776a13.681 13.681 0 0 1 13.665-13.665h-10a13.681 13.681 0 0 0 -13.665 13.665v123.776a13.681 13.681 0 0 0 13.665 13.665h10a13.681 13.681 0 0 1 -13.665-13.665z" fill="#afafaf"/><path d="m227.63 195.147v-123.776a13.681 13.681 0 0 0 -13.665-13.665h10a13.681 13.681 0 0 1 13.665 13.665v123.776a13.681 13.681 0 0 1 -13.665 13.665h-10a13.681 13.681 0 0 0 13.665-13.665z" fill="#e2e2e2"/><rect x="26px" y="66px" width="202px" height="122px" fill="#63bce7"/><path d="m36.779 183.147v-111.777a5.271 5.271 0 0 1 5.256-5.256h-10a5.271 5.271 0 0 0 -5.256 5.256v111.777a5.271 5.271 0 0 0 5.256 5.256h10a5.271 5.271 0 0 1 -5.256-5.256z" fill="#6377e7"/><path d="m219.221 183.147v-111.777a5.271 5.271 0 0 0 -5.256-5.256h10a5.271 5.271 0 0 1 5.256 5.256v111.777a5.271 5.271 0 0 1 -5.256 5.256h-10a5.271 5.271 0 0 0 5.256-5.256z" fill="#63e2e7"/><path d="m89.809 230.97h76.383v9.197h-76.383z" fill="#9e9e9e"/><path d="m89.809 230.97h10v9.197h-10z" fill="#707070"/><path d="m100.67 208.812h54.659v22.158h-54.659z" fill="#cecece"/><path d="m100.67 208.812h10v22.158h-10z" fill="#afafaf"/><circle cx="128" cy="198" r="4" fill="#9e9e9e"/><rect x="158px" y="99px" width="45px" height="63px" fill="#9e9e9e"/><circle cx="83" cy="69" r="65" fill="#f8af23"/><path d="m28.37 69.919a65.05 65.05 0 0 1 60.059-64.849c-1.652-.125-3.316-.21-5-.21a65.059 65.059 0 1 0 0 130.118c1.684 0 3.348-.084 5-.21a65.05 65.05 0 0 1 -60.059-64.849z" fill="#f87023"/><path d="m116.453 36.895-2.997-2.998-7.36 7.361-1.17 2.735-29.74 29.741 4.428 4.428 29.741-29.741 2.735-1.169 7.361-7.36z" fill="#cecece"/><rect x="59px" y="61px" width="15px" height="49px" transform="matrix(0.707 0.707 -0.707 0.707 80.548 -22.406)" fill="#9e9e9e"/><path d="m107.973 84.819-39.444-39.444a12.273 12.273 0 0 0 -14.429-14.43l8.529 8.529a1.716 1.716 0 0 1 .413 1.76l-1.816 5.4a1.715 1.715 0 0 1 -1.08 1.08l-5.4 1.816a1.716 1.716 0 0 1 -1.76-.413l-8.529-8.529a12.273 12.273 0 0 0 14.43 14.43l39.442 39.445a12.273 12.273 0 1 0 9.644-9.644zm8.975 13.8-4.819 4.819-6.583-1.764-1.764-6.583 4.819-4.819 6.582 1.764z" fill="#cecece"/><g fill="#3f3679"><path d="m128 204.607a6 6 0 1 0 -6-6 6.007 6.007 0 0 0 6 6zm0-9a3 3 0 1 1 -3 3 3 3 0 0 1 3-3z"/><path d="m27.323 249.641h-18a1.5 1.5 0 1 0 0 3h18a1.5 1.5 0 0 0 0-3z"/><path d="m246.68 249.641h-18a1.5 1.5 0 0 0 0 3h18a1.5 1.5 0 1 0 0-3z"/><path d="m218.479 249.641h-180.958a1.5 1.5 0 0 0 0 3h180.958a1.5 1.5 0 0 0 0-3z"/><path d="m9.32 241.667h237.36a1.5 1.5 0 0 0 0-3h-78.989v-7.7a1.5 1.5 0 0 0 -1.5-1.5h-9.361v-19.155h67.136a15.182 15.182 0 0 0 15.165-15.164v-123.777a15.182 15.182 0 0 0 -15.165-15.165h-75.4a66.559 66.559 0 0 0 -131.696 13.713v125.228a15.182 15.182 0 0 0 15.165 15.164h67.135v19.159h-9.361a1.5 1.5 0 0 0 -1.5 1.5v7.7h-78.989a1.5 1.5 0 1 0 0 3zm18.959-134.522a66.542 66.542 0 0 0 121.709-37.226c0-.772-.032-1.538-.058-2.3h74.036a3.76 3.76 0 0 1 3.756 3.755v111.773a3.76 3.76 0 0 1 -3.756 3.755h-191.931a3.76 3.76 0 0 1 -3.756-3.755zm55.15-100.786a63.56 63.56 0 1 1 -63.56 63.56 63.631 63.631 0 0 1 63.56-63.56zm-63.559 188.788v-105.447a66.174 66.174 0 0 0 5.43 12.591 1.486 1.486 0 0 0 -.021.211v80.647a6.763 6.763 0 0 0 6.756 6.755h191.93a6.763 6.763 0 0 0 6.756-6.755v-111.779a6.763 6.763 0 0 0 -6.756-6.755h-74.207c-.145-1.824-.354-3.629-.643-5.409h74.851a12.179 12.179 0 0 1 12.164 12.165v123.776a12.178 12.178 0 0 1 -12.165 12.164h-191.93a12.178 12.178 0 0 1 -12.165-12.164zm82.3 15.164h51.66v19.159h-51.66zm-10.861 22.159h73.383v6.2h-73.383z"/><path d="m149.228 156.946-4.228 4.514a1.5 1.5 0 0 0 2.19 2.051l4.227-4.511a11.986 11.986 0 0 1 4.23-2.915l5.741-2.38a24.4 24.4 0 0 0 40.463-.013l5.737 2.4a11.974 11.974 0 0 1 4.225 2.908l4.226 4.514a1.5 1.5 0 0 0 2.19-2.051l-4.229-4.517a14.939 14.939 0 0 0 -5.267-3.634l-5.352-2.235a24.254 24.254 0 0 0 2.648-11.038v-7.539h10.991a1.5 1.5 0 0 0 0-3h-10.988v-7.541a24.548 24.548 0 0 0 -.159-2.747l2.853-1.168a14.961 14.961 0 0 0 5.274-3.644l4.226-4.514a1.5 1.5 0 0 0 -2.19-2.051l-4.225 4.514a11.985 11.985 0 0 1 -4.224 2.913l-2.252.922a24.505 24.505 0 0 0 -11.821-15.541c.964-2.507 3.284-8.468 4.927-12.677a1.5 1.5 0 1 0 -2.795-1.09l-2.711 6.959c-.677 1.741-1.353 3.482-1.858 4.79-.1.263-.187.486-.273.712a24.343 24.343 0 0 0 -18.353-.012c-.085-.223-.168-.441-.268-.7-.5-1.308-1.181-3.049-1.858-4.79l-2.711-6.959a1.5 1.5 0 1 0 -2.795 1.09c1.639 4.2 3.954 10.146 4.921 12.662a24.5 24.5 0 0 0 -11.849 15.556l-2.251-.922a11.974 11.974 0 0 1 -4.225-2.913l-4.226-4.514a1.5 1.5 0 0 0 -2.19 2.051l4.226 4.514a14.95 14.95 0 0 0 5.277 3.638l2.852 1.168a24.548 24.548 0 0 0 -.159 2.747v7.547h-10.984a1.5 1.5 0 0 0 0 3h10.989v7.542a24.257 24.257 0 0 0 2.655 11.051l-5.35 2.218a14.961 14.961 0 0 0 -5.277 3.635zm10.972-16.906v-18.083c0-.49.041-.971.074-1.453h19.843v40.876a21.428 21.428 0 0 1 -19.917-21.34zm22.917 21.34v-40.88h19.843c.033.482.074.963.074 1.453v18.087a21.428 21.428 0 0 1 -19.919 21.34zm-1.5-60.84a21.449 21.449 0 0 1 20.943 16.96h-41.889a21.449 21.449 0 0 1 20.944-16.96z"/><path d="m104.1 102.062a1.5 1.5 0 0 0 1.061 1.062l6.583 1.764a1.5 1.5 0 0 0 1.449-.389l4.819-4.818a1.5 1.5 0 0 0 .388-1.448l-1.764-6.583a1.5 1.5 0 0 0 -1.061-1.062l-6.583-1.764a1.505 1.505 0 0 0 -1.449.389l-4.819 4.818a1.5 1.5 0 0 0 -.388 1.448zm4.952-10.116 4.91 1.315 1.315 4.91-3.594 3.594-4.91-1.315-1.315-4.91z"/><path d="m58.371 56.625 12.482 12.483-22.183 22.183a9.466 9.466 0 0 0 13.387 13.387l22.183-22.183 12.483 12.483a13.773 13.773 0 1 0 11.765-11.765l-15.9-15.9 17.625-17.624 2.469-1.057a1.491 1.491 0 0 0 .471-.318l7.36-7.36a1.5 1.5 0 0 0 0-2.121l-5.995-5.994a1.544 1.544 0 0 0 -2.121 0l-7.36 7.36a1.486 1.486 0 0 0 -.318.471l-1.056 2.469-17.626 17.623-15.9-15.9a13.773 13.773 0 0 0 -16.329-15.389 1.5 1.5 0 0 0 -.77 2.527l8.529 8.529a.215.215 0 0 1 .052.222l-1.816 5.4a.215.215 0 0 1 -.136.135l-5.4 1.816a.215.215 0 0 1 -.223-.052l-8.529-8.529a1.5 1.5 0 0 0 -2.532.77 13.772 13.772 0 0 0 15.388 16.334zm1.565 45.932a6.466 6.466 0 0 1 -9.145-9.145l22.183-22.183 9.144 9.145zm46.051-57.5a1.486 1.486 0 0 0 .318-.471l1.056-2.469 6.095-6.1 3.873 3.873-6.095 6.095-2.469 1.057a1.491 1.491 0 0 0 -.471.318l-17.829 17.83-2.307-2.307zm-54.063 5.123a3.2 3.2 0 0 0 3.3.773l5.4-1.816a3.228 3.228 0 0 0 2.024-2.023l1.816-5.4a3.2 3.2 0 0 0 -.774-3.3l-6.155-6.154a10.773 10.773 0 0 1 9.522 12.824 1.5 1.5 0 0 0 .411 1.352l39.445 39.444a1.506 1.506 0 0 0 1.352.411 10.773 10.773 0 1 1 -8.465 8.463 1.5 1.5 0 0 0 -.41-1.354l-39.444-39.442a1.5 1.5 0 0 0 -1.061-.439 1.556 1.556 0 0 0 -.292.028 10.772 10.772 0 0 1 -12.823-9.522z"/></g></g><g transform="matrix(0.2734375 0 0 0.2734375 315 140)" id="L1_79"><rect x="18px" y="26px" width="219px" height="151px" fill="#cecece"/><path d="m28.37 164.368v-123.777a13.681 13.681 0 0 1 13.665-13.665h-10a13.681 13.681 0 0 0 -13.665 13.665v123.777a13.681 13.681 0 0 0 13.665 13.665h10a13.681 13.681 0 0 1 -13.665-13.665z" fill="#afafaf"/><path d="m227.63 164.368v-123.777a13.681 13.681 0 0 0 -13.665-13.665h10a13.681 13.681 0 0 1 13.665 13.665v123.777a13.681 13.681 0 0 1 -13.665 13.665h-10a13.681 13.681 0 0 0 13.665-13.665z" fill="#e2e2e2"/><rect x="26px" y="35px" width="202px" height="122px" fill="#63bce7"/><path d="m36.779 152.368v-111.777a5.271 5.271 0 0 1 5.256-5.256h-10a5.271 5.271 0 0 0 -5.256 5.256v111.777a5.271 5.271 0 0 0 5.256 5.256h10a5.271 5.271 0 0 1 -5.256-5.256z" fill="#6377e7"/><path d="m219.221 152.368v-111.777a5.271 5.271 0 0 0 -5.256-5.256h10a5.271 5.271 0 0 1 5.256 5.256v111.777a5.271 5.271 0 0 1 -5.256 5.256h-10a5.271 5.271 0 0 0 5.256-5.256z" fill="#63e2e7"/><circle cx="128" cy="149" r="39" fill="#9e9e9e"/><path d="m98.022 149.872a39.976 39.976 0 0 1 34.978-39.656 39.978 39.978 0 1 0 0 79.311 39.976 39.976 0 0 1 -34.978-39.655z" fill="#707070"/><path d="m109.249 189.849h37.5a44.65 44.65 0 0 1 44.651 44.651 0 0 0 0 1 0 0h-126.8a0 0 0 0 1 0 0 44.65 44.65 0 0 1 44.649-44.651z" fill="#f8af23"/><path d="m119.249 189.849h-10a44.649 44.649 0 0 0 -44.649 44.651h10a44.649 44.649 0 0 1 44.649-44.651z" fill="#f87023"/><rect x="50px" y="10px" width="155px" height="85px" fill="#f46275"/><path d="m60.5 86.479v-65.951a10 10 0 0 1 10-10h-10a10 10 0 0 0 -10 10v65.951a10 10 0 0 0 10 10h10a10 10 0 0 1 -10-10z" fill="#f43075"/><path d="m195.5 86.479v-65.951a10 10 0 0 0 -10-10h10a10 10 0 0 1 10 10v65.951a10 10 0 0 1 -10 10h-10a10 10 0 0 0 10-10z" fill="#f48875"/><g fill="#3f3679"><path d="m77.255 25.606h7.857v7.857h-7.857z"/><path d="m91.062 25.606h69.359v7.857h-69.359z"/><path d="m166.229 25.606h12.517v7.857h-12.517z"/><path d="m77.255 41.585h7.857v7.857h-7.857z"/><path d="m91.062 41.585h55.413v7.857h-55.413z"/><path d="m152.396 41.585h26.35v7.857h-26.35z"/><path d="m77.255 57.565h7.857v7.857h-7.857z"/><path d="m91.062 57.565h27.707v7.857h-27.707z"/><path d="m129.991 57.565h48.754v7.857h-48.754z"/><path d="m77.255 73.544h7.857v7.857h-7.857z"/><path d="m91.062 73.544h16.201v7.857h-16.201z"/><path d="m113.062 73.544h65.683v7.857h-65.683z"/></g><path d="m221.871 115.617c-.208.58-.443 1.138-.7 1.691l5.2 5.2-10.224 10.222-5.2-5.2c-.553.257-1.116.493-1.691.7v7.355h-14.456v-7.355c-.575-.208-1.138-.443-1.691-.7l-5.2 5.2-10.219-10.223 5.2-5.2c-.257-.553-.493-1.111-.7-1.691h-7.355v-14.452h7.355c.208-.575.443-1.138.7-1.691l-5.2-5.2 10.223-10.223 5.2 5.2c.553-.257 1.116-.5 1.691-.706v-7.344h14.453v7.35c.575.208 1.138.449 1.691.706l5.2-5.2 10.222 10.218-5.2 5.2c.257.553.493 1.116.7 1.691h7.35v14.453z" fill="#f8af23"/><path d="m229.221 115.617v-14.453h-7.35c-.208-.575-.443-1.138-.7-1.691l5.2-5.2-10.224-10.222-5 5 5.22 5.22-5.2 5.2c.257.553.493 1.116.7 1.691h7.35v14.453h-7.35c-.208.58-.443 1.138-.7 1.691l5.2 5.2-5.223 5.223 5 5 10.223-10.223-5.2-5.2c.257-.553.493-1.111.7-1.691z" fill="#f8d323"/><circle cx="202" cy="108" r="9" fill="#9e9e9e"/><path d="m27.323 243.972h-18a1.5 1.5 0 1 0 0 3h18a1.5 1.5 0 1 0 0-3z" fill="#3f3679"/><path d="m246.68 243.972h-18a1.5 1.5 0 0 0 0 3h18a1.5 1.5 0 0 0 0-3z" fill="#3f3679"/><path d="m218.479 243.972h-180.958a1.5 1.5 0 0 0 0 3h180.958a1.5 1.5 0 0 0 0-3z" fill="#3f3679"/><path d="m9.32 236h237.36a1.5 1.5 0 0 0 0-3h-53.818a46.2 46.2 0 0 0 -46.111-44.65h-3.291a41.592 41.592 0 0 0 13.494-8.817h67.012a15.182 15.182 0 0 0 15.165-15.165v-123.777a15.182 15.182 0 0 0 -15.165-15.165h-16.966v-4.9a11.513 11.513 0 0 0 -11.5-11.5h-135a11.513 11.513 0 0 0 -11.5 11.502v4.9h-16.965a15.182 15.182 0 0 0 -15.165 15.163v123.777a15.182 15.182 0 0 0 15.165 15.165h67.012a41.592 41.592 0 0 0 13.494 8.817h-3.291a46.2 46.2 0 0 0 -46.112 44.65h-53.818a1.5 1.5 0 1 0 0 3zm214.645-207.574a12.179 12.179 0 0 1 12.165 12.165v123.777a12.178 12.178 0 0 1 -12.165 12.165h-64.224a41.366 41.366 0 0 0 8.683-17.409h55.541a6.764 6.764 0 0 0 6.756-6.756v-111.777a6.763 6.763 0 0 0 -6.756-6.755h-16.965v-5.41zm-137.443 121.446a41.626 41.626 0 0 0 .472 6.252h-54.959a3.76 3.76 0 0 1 -3.756-3.756v-111.777a3.76 3.76 0 0 1 3.756-3.755h16.965v49.643a11.513 11.513 0 0 0 11.5 11.5h118.7c.023 0 .044-.006.066-.007l1.691 1.691h-6.124a1.5 1.5 0 0 0 -1.5 1.5v14.455a1.5 1.5 0 0 0 1.5 1.5h6.124l-4.33 4.33a1.5 1.5 0 0 0 0 2.121l10.221 10.221a1.5 1.5 0 0 0 2.121 0l4.331-4.33v6.124a1.5 1.5 0 0 0 1.5 1.5h14.455a1.5 1.5 0 0 0 1.5-1.5v-6.124l4.33 4.33a1.5 1.5 0 0 0 2.121 0l10.221-10.221a1.48 1.48 0 0 0 .294-.442v29.24a3.76 3.76 0 0 1 -3.756 3.756h-54.959a41.479 41.479 0 1 0 -82.484-6.252zm120.478-113.037h16.965a3.76 3.76 0 0 1 3.756 3.755v53.065a1.48 1.48 0 0 0 -.294-.442l-10.221-10.222a1.544 1.544 0 0 0 -2.121 0l-4.33 4.33v-6.121a1.5 1.5 0 0 0 -1.5-1.5h-2.255zm20.721 85.056a1.48 1.48 0 0 0 -.294-.442l-4.33-4.33h4.624zm0-22.228h-4.621l4.33-4.331a1.481 1.481 0 0 0 .294-.443zm-19.966-16.963v5.851a1.5 1.5 0 0 0 .986 1.409c.51.186 1.023.4 1.569.655a1.5 1.5 0 0 0 1.695-.3l4.141-4.141 8.1 8.1-4.146 4.14a1.5 1.5 0 0 0 -.3 1.695c.256.549.47 1.062.654 1.568a1.5 1.5 0 0 0 1.41.987h5.851v11.455h-5.845a1.5 1.5 0 0 0 -1.41.987c-.185.507-.4 1.021-.654 1.568a1.5 1.5 0 0 0 .3 1.695l4.141 4.141-8.1 8.1-4.147-4.141a1.5 1.5 0 0 0 -1.695-.3c-.547.256-1.061.47-1.568.654a1.5 1.5 0 0 0 -.987 1.41v5.851h-11.45v-5.851a1.5 1.5 0 0 0 -.987-1.41c-.506-.184-1.019-.4-1.568-.654a1.5 1.5 0 0 0 -1.695.3l-4.141 4.141-8.1-8.1 4.141-4.141a1.5 1.5 0 0 0 .3-1.695c-.255-.546-.469-1.06-.655-1.569a1.5 1.5 0 0 0 -1.409-.986h-5.851v-11.455h5.851a1.5 1.5 0 0 0 1.409-.986c.185-.508.4-1.021.655-1.569a1.5 1.5 0 0 0 -.3-1.695l-4.141-4.141 8.1-8.1 4.141 4.141a1.5 1.5 0 0 0 1.695.3c.548-.256 1.061-.47 1.569-.655a1.5 1.5 0 0 0 .986-1.409v-5.85zm-155.755-62.172a8.51 8.51 0 0 1 8.5-8.5h135a8.51 8.51 0 0 1 8.5 8.5v59.172h-9.2a1.5 1.5 0 0 0 -1.5 1.5v6.124l-4.331-4.331a1.5 1.5 0 0 0 -2.121 0l-10.221 10.219a1.48 1.48 0 0 0 -.235 1.767h-115.892a8.51 8.51 0 0 1 -8.5-8.5zm-32.13 143.84v-123.777a12.179 12.179 0 0 1 12.165-12.165h16.965v5.409h-16.965a6.763 6.763 0 0 0 -6.756 6.755v111.778a6.764 6.764 0 0 0 6.756 6.756h55.54a41.366 41.366 0 0 0 8.683 17.409h-64.223a12.178 12.178 0 0 1 -12.165-12.165zm69.652-14.5a38.478 38.478 0 1 1 38.478 38.481 38.522 38.522 0 0 1 -38.478-38.477zm19.728 41.478h37.5a43.2 43.2 0 0 1 43.124 41.654h-123.748a43.2 43.2 0 0 1 43.124-41.651z" fill="#3f3679"/><path d="m191.323 108.392a10.7 10.7 0 1 0 10.7-10.7 10.716 10.716 0 0 0 -10.7 10.7zm10.7-7.7a7.7 7.7 0 1 1 -7.7 7.7 7.713 7.713 0 0 1 7.704-7.704z" fill="#3f3679"/></g><g transform="matrix(0.2641203431259171 -0.07077083264522052 0.07077083264522052 0.2641203431259171 132.4568932563273 149.87323591389645)" id="L1_80"><rect x="18px" y="50px" width="219px" height="151px" fill="#cecece"/><path d="m28.37 188.153v-123.777a13.681 13.681 0 0 1 13.665-13.665h-10a13.681 13.681 0 0 0 -13.665 13.665v123.777a13.681 13.681 0 0 0 13.665 13.665h10a13.681 13.681 0 0 1 -13.665-13.665z" fill="#afafaf"/><path d="m227.63 188.153v-123.777a13.681 13.681 0 0 0 -13.665-13.665h10a13.681 13.681 0 0 1 13.665 13.665v123.777a13.681 13.681 0 0 1 -13.665 13.665h-10a13.681 13.681 0 0 0 13.665-13.665z" fill="#e2e2e2"/><rect x="26px" y="59px" width="202px" height="122px" fill="#63bce7"/><path d="m36.779 176.153v-111.777a5.271 5.271 0 0 1 5.256-5.256h-10a5.271 5.271 0 0 0 -5.256 5.256v111.777a5.271 5.271 0 0 0 5.256 5.256h10a5.271 5.271 0 0 1 -5.256-5.256z" fill="#6377e7"/><path d="m219.221 176.153v-111.777a5.271 5.271 0 0 0 -5.256-5.256h10a5.271 5.271 0 0 1 5.256 5.256v111.777a5.271 5.271 0 0 1 -5.256 5.256h-10a5.271 5.271 0 0 0 5.256-5.256z" fill="#63e2e7"/><path d="m89.809 223.975h76.383v9.197h-76.383z" fill="#9e9e9e"/><path d="m89.809 223.975h10v9.197h-10z" fill="#707070"/><path d="m100.67 201.817h54.659v22.158h-54.659z" fill="#cecece"/><path d="m100.67 201.817h10v22.158h-10z" fill="#afafaf"/><circle cx="128" cy="191" r="4" fill="#9e9e9e"/><rect x="50px" y="11px" width="154px" height="132px" fill="#cecece"/><path d="m60.757 133.6v-111.146a10.6 10.6 0 0 1 10.6-10.6h-10a10.6 10.6 0 0 0 -10.6 10.6v111.146a10.6 10.6 0 0 0 10.6 10.6h10a10.6 10.6 0 0 1 -10.6-10.6z" fill="#afafaf"/><path d="m195.243 133.6v-111.146a10.6 10.6 0 0 0 -10.6-10.6h10a10.6 10.6 0 0 1 10.6 10.6v111.146a10.6 10.6 0 0 1 -10.6 10.6h-10a10.6 10.6 0 0 0 10.6-10.6z" fill="#e2e2e2"/><path d="m205.242 22.456a10.6 10.6 0 0 0 -10.6-10.6h-133.283a10.6 10.6 0 0 0 -10.6 10.6v18.449h154.483z" fill="#f8af23"/><path d="m71.359 11.854h-10a10.6 10.6 0 0 0 -10.6 10.6v18.451h10v-18.449a10.6 10.6 0 0 1 10.6-10.602z" fill="#f87023"/><path d="m184.641 11.854h10a10.6 10.6 0 0 1 10.6 10.6v18.451h-10v-18.449a10.6 10.6 0 0 0 -10.6-10.602z" fill="#f8d323"/><circle cx="69" cy="26" r="4" fill="#f46275"/><circle cx="88" cy="26" r="4" fill="#f46275"/><circle cx="106" cy="26" r="4" fill="#f46275"/><rect x="122px" y="23px" width="68px" height="7px" fill="#f46275"/><path d="m108.156 151.422c.208.58.443 1.138.7 1.691l-5.2 5.2 10.223 10.223 5.2-5.2c.553.257 1.116.493 1.691.7v7.355h14.453v-7.355c.575-.208 1.138-.443 1.691-.7l5.2 5.2 10.223-10.223-5.2-5.2c.257-.553.493-1.111.7-1.691h7.355v-14.453h-7.355c-.208-.575-.443-1.138-.7-1.691l5.2-5.2-10.223-10.223-5.2 5.2c-.553-.257-1.116-.5-1.691-.706v-7.349h-14.452v7.35c-.575.208-1.138.449-1.691.706l-5.2-5.2-10.223 10.223 5.2 5.2c-.257.553-.493 1.116-.7 1.691h-7.35v14.453z" fill="#f46275"/><circle cx="128" cy="144" r="9" fill="#9e9e9e"/><rect x="68px" y="59px" width="118px" height="46px" fill="#f8af23"/><g fill="#3f3679"><path d="m128 197.613a6 6 0 1 0 -6-6 6.007 6.007 0 0 0 6 6zm0-9a3 3 0 1 1 -3 3 3 3 0 0 1 3-3z"/><path d="m27.323 242.646h-18a1.5 1.5 0 1 0 0 3h18a1.5 1.5 0 1 0 0-3z"/><path d="m246.68 242.646h-18a1.5 1.5 0 0 0 0 3h18a1.5 1.5 0 0 0 0-3z"/><path d="m218.479 242.646h-180.958a1.5 1.5 0 0 0 0 3h180.958a1.5 1.5 0 0 0 0-3z"/><path d="m9.32 234.673h237.36a1.5 1.5 0 0 0 0-3h-78.989v-7.7a1.5 1.5 0 0 0 -1.5-1.5h-9.362v-19.156h67.137a15.182 15.182 0 0 0 15.164-15.165v-123.776a15.182 15.182 0 0 0 -15.164-15.165h-17.224v-26.757a12.113 12.113 0 0 0 -12.1-12.1h-133.285a12.114 12.114 0 0 0 -12.1 12.1v26.757h-17.222a15.182 15.182 0 0 0 -15.165 15.165v123.776a15.182 15.182 0 0 0 15.165 15.165h67.135v19.158h-9.361a1.5 1.5 0 0 0 -1.5 1.5v7.7h-78.989a1.5 1.5 0 1 0 0 3zm145.875-99.2h-6.125l4.33-4.33a1.5 1.5 0 0 0 0-2.121l-10.221-10.222a1.544 1.544 0 0 0 -2.121 0l-4.33 4.33v-6.13a1.5 1.5 0 0 0 -1.5-1.5h-14.456a1.5 1.5 0 0 0 -1.5 1.5v6.124l-4.33-4.33a1.5 1.5 0 0 0 -2.121 0l-10.221 10.224a1.5 1.5 0 0 0 0 2.121l4.33 4.33h-6.124a1.5 1.5 0 0 0 -1.5 1.5v5.731h-37.949a9.111 9.111 0 0 1 -9.1-9.1v-91.195h151.485v91.195a9.11 9.11 0 0 1 -9.1 9.1h-37.948v-5.729a1.5 1.5 0 0 0 -1.5-1.502zm-9.116 18.705 4.141 4.141-8.1 8.1-4.141-4.141a1.5 1.5 0 0 0 -1.694-.3c-.552.257-1.064.471-1.568.654a1.5 1.5 0 0 0 -.987 1.41v5.851h-11.458v-5.851a1.5 1.5 0 0 0 -.987-1.41c-.506-.184-1.019-.4-1.568-.654a1.5 1.5 0 0 0 -1.695.3l-4.141 4.141-8.1-8.1 4.141-4.141a1.5 1.5 0 0 0 .3-1.695c-.256-.549-.47-1.062-.654-1.568a1.5 1.5 0 0 0 -1.41-.987h-5.851v-11.459h5.851a1.5 1.5 0 0 0 1.41-.987c.184-.506.4-1.019.654-1.568a1.5 1.5 0 0 0 -.3-1.695l-4.141-4.141 8.1-8.1 4.141 4.141a1.5 1.5 0 0 0 1.695.3c.549-.256 1.062-.47 1.568-.654a1.5 1.5 0 0 0 .987-1.41v-5.855h11.455v5.851a1.5 1.5 0 0 0 .987 1.41c.5.183 1.017.4 1.568.654a1.5 1.5 0 0 0 1.694-.3l4.141-4.141 8.1 8.1-4.141 4.141a1.5 1.5 0 0 0 -.3 1.694c.255.547.469 1.061.654 1.57a1.5 1.5 0 0 0 1.409.986h5.852v11.455h-5.852a1.5 1.5 0 0 0 -1.409.986c-.186.509-.4 1.023-.654 1.57a1.5 1.5 0 0 0 .302 1.698zm-84.722-8.478h37.949v5.727a1.5 1.5 0 0 0 1.5 1.5h6.124l-4.33 4.33a1.5 1.5 0 0 0 0 2.121l10.221 10.222a1.544 1.544 0 0 0 2.121 0l4.33-4.33v6.124a1.5 1.5 0 0 0 1.5 1.5h14.455a1.5 1.5 0 0 0 1.5-1.5v-6.124l4.33 4.33a1.5 1.5 0 0 0 2.121 0l10.222-10.225a1.5 1.5 0 0 0 0-2.121l-4.33-4.33h6.124a1.5 1.5 0 0 0 1.5-1.5v-5.724h37.948a12.114 12.114 0 0 0 12.1-12.1v-72.98h17.224a3.76 3.76 0 0 1 3.755 3.756v111.776a3.76 3.76 0 0 1 -3.755 3.756h-191.931a3.76 3.76 0 0 1 -3.756-3.756v-111.776a3.76 3.76 0 0 1 3.756-3.756h17.222v72.98a12.114 12.114 0 0 0 12.1 12.1zm133.284-132.346a9.112 9.112 0 0 1 9.1 9.1v16.951h-151.484v-16.949a9.112 9.112 0 0 1 9.1-9.1zm-174.771 174.798v-123.776a12.178 12.178 0 0 1 12.165-12.165h17.222v5.409h-17.222a6.764 6.764 0 0 0 -6.756 6.756v111.776a6.764 6.764 0 0 0 6.756 6.756h191.931a6.763 6.763 0 0 0 6.755-6.756v-111.776a6.763 6.763 0 0 0 -6.755-6.756h-17.224v-5.409h17.224a12.178 12.178 0 0 1 12.164 12.165v123.776a12.178 12.178 0 0 1 -12.164 12.165h-191.931a12.179 12.179 0 0 1 -12.165-12.165zm82.3 15.165h51.659v19.158h-51.659zm-10.861 22.159h73.383v6.2h-73.383z"/><path d="m69.682 32.722a6.342 6.342 0 1 0 -6.342-6.342 6.349 6.349 0 0 0 6.342 6.342zm0-9.684a3.342 3.342 0 1 1 -3.342 3.342 3.345 3.345 0 0 1 3.342-3.342z"/><path d="m88.332 32.722a6.342 6.342 0 1 0 -6.342-6.342 6.349 6.349 0 0 0 6.342 6.342zm0-9.684a3.342 3.342 0 1 1 -3.342 3.342 3.345 3.345 0 0 1 3.342-3.342z"/><path d="m106.981 32.722a6.342 6.342 0 1 0 -6.342-6.342 6.349 6.349 0 0 0 6.342 6.342zm0-9.684a3.342 3.342 0 1 1 -3.342 3.342 3.345 3.345 0 0 1 3.342-3.342z"/><path d="m126.206 31.886h61.265a5.189 5.189 0 1 0 0-10.378h-61.265a5.189 5.189 0 1 0 0 10.378zm0-7.378h61.265a2.189 2.189 0 1 1 0 4.378h-61.265a2.189 2.189 0 1 1 0-4.378z"/><path d="m128 133.492a10.7 10.7 0 1 0 10.7 10.7 10.716 10.716 0 0 0 -10.7-10.7zm0 18.408a7.7 7.7 0 1 1 7.7-7.7 7.713 7.713 0 0 1 -7.7 7.7z"/><path d="m188.667 101v-36.88a6.508 6.508 0 0 0 -6.5-6.5h-108.334a6.508 6.508 0 0 0 -6.5 6.5v36.88a6.508 6.508 0 0 0 6.5 6.5h108.334a6.508 6.508 0 0 0 6.5-6.5zm-118.334 0v-36.88a3.5 3.5 0 0 1 3.5-3.5h108.334a3.5 3.5 0 0 1 3.5 3.5v36.88a3.5 3.5 0 0 1 -3.5 3.5h-108.334a3.5 3.5 0 0 1 -3.5-3.5z"/><path d="m114.437 91.992h-9.437a1.186 1.186 0 0 0 -1.122.8l-1.3 3.813a1.186 1.186 0 0 1 -1.122.8h-5.012a1.186 1.186 0 0 1 -1.113-1.6l10.006-27.12a1.186 1.186 0 0 1 1.113-.775h6.622a1.186 1.186 0 0 1 1.113.775l10.006 27.12a1.186 1.186 0 0 1 -1.113 1.6h-5.095a1.186 1.186 0 0 1 -1.122-.8l-1.3-3.813a1.186 1.186 0 0 0 -1.124-.8zm-1.53-7.028-2.05-6.057a1.186 1.186 0 0 0 -2.245 0l-2.073 6.057a1.186 1.186 0 0 0 1.122 1.57h4.123a1.186 1.186 0 0 0 1.123-1.57z"/><path d="m134.736 88.178v8.047a1.186 1.186 0 0 1 -1.186 1.186h-4.811a1.186 1.186 0 0 1 -1.186-1.186v-27.33a1.186 1.186 0 0 1 1.186-1.186h10.452q5.293 0 8.065 2.626a9.288 9.288 0 0 1 2.773 7.079 9.763 9.763 0 0 1 -1.239 4.937 8.583 8.583 0 0 1 -3.675 3.4 12.942 12.942 0 0 1 -5.923 1.239h-3.269a1.186 1.186 0 0 0 -1.187 1.188zm7.983-10.764q0-3.908-4.327-3.908h-2.471a1.186 1.186 0 0 0 -1.186 1.186v5.358a1.186 1.186 0 0 0 1.186 1.186h2.471q4.327 0 4.328-3.822z"/><path d="m160.743 68.895v27.33a1.186 1.186 0 0 1 -1.186 1.186h-4.811a1.186 1.186 0 0 1 -1.186-1.186v-27.33a1.186 1.186 0 0 1 1.186-1.186h4.811a1.186 1.186 0 0 1 1.186 1.186z"/></g></g></defs><g fi:class="KUsePattern"><pattern id="pattern_L1_71" width="350" height="350" patternUnits="userSpaceOnUse"><use xlink:href="#L1_71" x="-350" y="-350"/><use xlink:href="#L1_71" x="0" y="-350"/><use xlink:href="#L1_71" x="350" y="-350"/><use xlink:href="#L1_71" x="-350" y="0"/><use xlink:href="#L1_71" x="0" y="0"/><use xlink:href="#L1_71" x="350" y="0"/><use xlink:href="#L1_71" x="-350" y="350"/><use xlink:href="#L1_71" x="0" y="350"/><use xlink:href="#L1_71" x="350" y="350"/></pattern><rect x="0" y="0" width="100%" height="100%" fill="url(#pattern_L1_71)"/></g><g fi:class="KUsePattern"><pattern id="pattern_L1_72" width="350" height="350" patternUnits="userSpaceOnUse"><use xlink:href="#L1_72" x="-350" y="-350"/><use xlink:href="#L1_72" x="0" y="-350"/><use xlink:href="#L1_72" x="350" y="-350"/><use xlink:href="#L1_72" x="-350" y="0"/><use xlink:href="#L1_72" x="0" y="0"/><use xlink:href="#L1_72" x="350" y="0"/><use xlink:href="#L1_72" x="-350" y="350"/><use xlink:href="#L1_72" x="0" y="350"/><use xlink:href="#L1_72" x="350" y="350"/></pattern><rect x="0" y="0" width="100%" height="100%" fill="url(#pattern_L1_72)"/></g><g fi:class="KUsePattern"><pattern id="pattern_L1_73" width="350" height="350" patternUnits="userSpaceOnUse"><use xlink:href="#L1_73" x="-350" y="-350"/><use xlink:href="#L1_73" x="0" y="-350"/><use xlink:href="#L1_73" x="350" y="-350"/><use xlink:href="#L1_73" x="-350" y="0"/><use xlink:href="#L1_73" x="0" y="0"/><use xlink:href="#L1_73" x="350" y="0"/><use xlink:href="#L1_73" x="-350" y="350"/><use xlink:href="#L1_73" x="0" y="350"/><use xlink:href="#L1_73" x="350" y="350"/></pattern><rect x="0" y="0" width="100%" height="100%" fill="url(#pattern_L1_73)"/></g><g fi:class="KUsePattern"><pattern id="pattern_L1_74" width="350" height="350" patternUnits="userSpaceOnUse"><use xlink:href="#L1_74" x="-350" y="-350"/><use xlink:href="#L1_74" x="0" y="-350"/><use xlink:href="#L1_74" x="350" y="-350"/><use xlink:href="#L1_74" x="-350" y="0"/><use xlink:href="#L1_74" x="0" y="0"/><use xlink:href="#L1_74" x="350" y="0"/><use xlink:href="#L1_74" x="-350" y="350"/><use xlink:href="#L1_74" x="0" y="350"/><use xlink:href="#L1_74" x="350" y="350"/></pattern><rect x="0" y="0" width="100%" height="100%" fill="url(#pattern_L1_74)"/></g><g fi:class="KUsePattern"><pattern id="pattern_L1_75" width="350" height="350" patternUnits="userSpaceOnUse"><use xlink:href="#L1_75" x="-350" y="-350"/><use xlink:href="#L1_75" x="0" y="-350"/><use xlink:href="#L1_75" x="350" y="-350"/><use xlink:href="#L1_75" x="-350" y="0"/><use xlink:href="#L1_75" x="0" y="0"/><use xlink:href="#L1_75" x="350" y="0"/><use xlink:href="#L1_75" x="-350" y="350"/><use xlink:href="#L1_75" x="0" y="350"/><use xlink:href="#L1_75" x="350" y="350"/></pattern><rect x="0" y="0" width="100%" height="100%" fill="url(#pattern_L1_75)"/></g><g fi:class="KUsePattern"><pattern id="pattern_L1_76" width="350" height="350" patternUnits="userSpaceOnUse"><use xlink:href="#L1_76" x="-350" y="-350"/><use xlink:href="#L1_76" x="0" y="-350"/><use xlink:href="#L1_76" x="350" y="-350"/><use xlink:href="#L1_76" x="-350" y="0"/><use xlink:href="#L1_76" x="0" y="0"/><use xlink:href="#L1_76" x="350" y="0"/><use xlink:href="#L1_76" x="-350" y="350"/><use xlink:href="#L1_76" x="0" y="350"/><use xlink:href="#L1_76" x="350" y="350"/></pattern><rect x="0" y="0" width="100%" height="100%" fill="url(#pattern_L1_76)"/></g><g fi:class="KUsePattern"><pattern id="pattern_L1_77" width="350" height="350" patternUnits="userSpaceOnUse"><use xlink:href="#L1_77" x="-350" y="-350"/><use xlink:href="#L1_77" x="0" y="-350"/><use xlink:href="#L1_77" x="350" y="-350"/><use xlink:href="#L1_77" x="-350" y="0"/><use xlink:href="#L1_77" x="0" y="0"/><use xlink:href="#L1_77" x="350" y="0"/><use xlink:href="#L1_77" x="-350" y="350"/><use xlink:href="#L1_77" x="0" y="350"/><use xlink:href="#L1_77" x="350" y="350"/></pattern><rect x="0" y="0" width="100%" height="100%" fill="url(#pattern_L1_77)"/></g><g fi:class="KUsePattern"><pattern id="pattern_L1_78" width="350" height="350" patternUnits="userSpaceOnUse"><use xlink:href="#L1_78" x="-350" y="-350"/><use xlink:href="#L1_78" x="0" y="-350"/><use xlink:href="#L1_78" x="350" y="-350"/><use xlink:href="#L1_78" x="-350" y="0"/><use xlink:href="#L1_78" x="0" y="0"/><use xlink:href="#L1_78" x="350" y="0"/><use xlink:href="#L1_78" x="-350" y="350"/><use xlink:href="#L1_78" x="0" y="350"/><use xlink:href="#L1_78" x="350" y="350"/></pattern><rect x="0" y="0" width="100%" height="100%" fill="url(#pattern_L1_78)"/></g><g fi:class="KUsePattern"><pattern id="pattern_L1_79" width="350" height="350" patternUnits="userSpaceOnUse"><use xlink:href="#L1_79" x="-350" y="-350"/><use xlink:href="#L1_79" x="0" y="-350"/><use xlink:href="#L1_79" x="350" y="-350"/><use xlink:href="#L1_79" x="-350" y="0"/><use xlink:href="#L1_79" x="0" y="0"/><use xlink:href="#L1_79" x="350" y="0"/><use xlink:href="#L1_79" x="-350" y="350"/><use xlink:href="#L1_79" x="0" y="350"/><use xlink:href="#L1_79" x="350" y="350"/></pattern><rect x="0" y="0" width="100%" height="100%" fill="url(#pattern_L1_79)"/></g><g fi:class="KUsePattern"><pattern id="pattern_L1_80" width="350" height="350" patternUnits="userSpaceOnUse"><use xlink:href="#L1_80" x="-350" y="-350"/><use xlink:href="#L1_80" x="0" y="-350"/><use xlink:href="#L1_80" x="350" y="-350"/><use xlink:href="#L1_80" x="-350" y="0"/><use xlink:href="#L1_80" x="0" y="0"/><use xlink:href="#L1_80" x="350" y="0"/><use xlink:href="#L1_80" x="-350" y="350"/><use xlink:href="#L1_80" x="0" y="350"/><use xlink:href="#L1_80" x="350" y="350"/></pattern><rect x="0" y="0" width="100%" height="100%" fill="url(#pattern_L1_80)"/></g></svg>