<?xml version="1.0" encoding="iso-8859-1"?>
<!-- Generator: Adobe Illustrator 19.0.0, SVG Export Plug-In . SVG Version: 6.00 Build 0)  -->
<svg version="1.1" id="Capa_1" xmlns="http://www.w3.org/2000/svg" xmlns:xlink="http://www.w3.org/1999/xlink" x="0px" y="0px"
	 viewBox="0 0 488.751 488.751" style="enable-background:new 0 0 488.751 488.751;" xml:space="preserve">
<linearGradient id="SVGID_1_" gradientUnits="userSpaceOnUse" x1="-24.4132" y1="606.0501" x2="-24.4132" y2="546.6871" gradientTransform="matrix(8 0 0 -8 439.6812 4847.3286)">
	<stop  offset="0" style="stop-color:#FFF33B"/>
	<stop  offset="0.04" style="stop-color:#FEE72E"/>
	<stop  offset="0.117" style="stop-color:#FED51B"/>
	<stop  offset="0.196" style="stop-color:#FDCA10"/>
	<stop  offset="0.281" style="stop-color:#FDC70C"/>
	<stop  offset="0.669" style="stop-color:#F3903F"/>
	<stop  offset="0.888" style="stop-color:#ED683C"/>
	<stop  offset="1" style="stop-color:#E93E3A"/>
</linearGradient>
<path style="fill:url(#SVGID_1_);" d="M486.404,166.392l-17.944-17.944c-4.489-4.518-10.599-7.05-16.968-7.032h-20.688
	c-2.12,0.002-4.155-0.839-5.656-2.336l-6.624-6.632c-3.126-3.122-3.129-8.188-0.006-11.314c0.002-0.002,0.004-0.004,0.006-0.006
	l5.656-5.656c3.123-3.124,3.123-8.188,0-11.312l-56.392-56.352c-0.372-0.37-0.779-0.702-1.216-0.992
	c-23.548-15.751-51.009-24.65-79.32-25.704l-111.68-4.136c-4.415-0.166-8.129,3.278-8.295,7.693
	c-0.123,3.268,1.755,6.282,4.743,7.611l105.6,47.136c10.1,5.068,19.437,11.531,27.736,19.2l-28.216,28.216
	c-3.123,3.124-3.123,8.188,0,11.312L11.228,403.992c-15.347,15.89-14.907,41.213,0.983,56.56c15.501,14.971,40.076,14.971,55.577,0
	l265.88-265.872c3.124,3.123,8.188,3.123,11.312,0l16.976-16.968c3.164-3.025,8.148-3.025,11.312,0l6.624,6.624
	c1.506,1.496,2.35,3.533,2.344,5.656v20.688c-0.02,6.369,2.513,12.48,7.032,16.968l17.936,17.944
	c3.122,3.126,8.188,3.129,11.314,0.006c0.002-0.002,0.004-0.004,0.006-0.006l67.88-67.88c3.126-3.122,3.129-8.188,0.006-11.314
	C486.409,166.396,486.407,166.394,486.404,166.392L486.404,166.392z M56.484,449.24c-9.373,9.373-24.571,9.373-33.944,0
	s-9.373-24.571,0-33.944l265.872-265.872l33.944,33.944L56.484,449.24z M412.86,228.624l-12.272-12.288
	c-1.494-1.504-2.337-3.536-2.344-5.656v-20.688c0.016-6.368-2.516-12.478-7.032-16.968l-6.624-6.632
	c-9.372-9.369-24.564-9.369-33.936,0l-11.32,11.312l-45.256-45.256l28.288-28.288c3.123-3.124,3.123-8.188,0-11.312l-2.264-2.264
	c-10.431-10.396-22.471-19.04-35.656-25.6l-68.232-30.488l70.448,2.608c25.095,0.924,49.451,8.737,70.4,22.584l50.136,50.136
	c-9.352,9.382-9.352,24.562,0,33.944l6.632,6.632c4.492,4.512,10.601,7.042,16.968,7.024h20.688c2.12,0.007,4.152,0.85,5.656,2.344
	l12.288,12.288L412.86,228.624z"/>
<g>
</g>
<g>
</g>
<g>
</g>
<g>
</g>
<g>
</g>
<g>
</g>
<g>
</g>
<g>
</g>
<g>
</g>
<g>
</g>
<g>
</g>
<g>
</g>
<g>
</g>
<g>
</g>
<g>
</g>
</svg>
