<svg width="68" height="68" viewBox="0 0 68 68" fill="none" xmlns="http://www.w3.org/2000/svg">
<path d="M52.7 57.375H15.3C12.75 57.375 10.625 55.25 10.625 52.7V18.3812C10.625 15.8312 12.325 13.7062 14.5563 13.7062H16.8937V16.7875H14.5563C14.2375 16.7875 13.8125 17.425 13.8125 18.3812V52.7C13.8125 53.55 14.5563 54.2938 15.4062 54.2938H52.8063C53.6562 54.2938 54.4 53.55 54.4 52.7V18.3812C54.4 17.425 53.8688 16.7875 53.6562 16.7875H51.3187V13.7062H53.6562C55.7812 13.7062 57.5875 15.8312 57.5875 18.3812V52.7C57.375 55.25 55.25 57.375 52.7 57.375Z" fill="white"/>
<path d="M21.5687 19.975C20.7187 19.975 19.975 19.2312 19.975 18.3812V12.1125C19.975 11.2625 20.7187 10.5187 21.5687 10.5187C22.4187 10.5187 23.1625 11.2625 23.1625 12.1125V18.3812C23.0562 19.2312 22.4187 19.975 21.5687 19.975Z" fill="white"/>
<path d="M46.4313 19.975C45.5813 19.975 44.8375 19.2312 44.8375 18.3812V12.1125C44.8375 11.2625 45.5813 10.5187 46.4313 10.5187C47.2813 10.5187 48.025 11.2625 48.025 12.1125V18.3812C48.025 19.2312 47.2813 19.975 46.4313 19.975Z" fill="white"/>
<path d="M26.2438 13.7062H41.7563V16.8937H26.2438V13.7062Z" fill="white"/>
<path d="M13.7063 23.0563H54.2938V26.2438H13.7063V23.0563Z" fill="white"/>
<path d="M48.025 29.325H51.1063V32.4063H48.025V29.325Z" fill="white"/>
<path d="M41.7562 29.325H44.9437V32.4063H41.7562V29.325Z" fill="white"/>
<path d="M35.5938 29.325H38.675V32.4063H35.5938V29.325Z" fill="white"/>
<path d="M29.325 29.325H32.4062V32.4063H29.325V29.325Z" fill="white"/>
<path d="M23.0563 29.325H26.2438V32.4063H23.0563V29.325Z" fill="white"/>
<path d="M48.025 35.5938H51.1063V38.675H48.025V35.5938Z" fill="white"/>
<path d="M41.7562 35.5938H44.9437V38.675H41.7562V35.5938Z" fill="white"/>
<path d="M35.5938 35.5938H38.675V38.675H35.5938V35.5938Z" fill="white"/>
<path d="M29.325 35.5938H32.4062V38.675H29.325V35.5938Z" fill="white"/>
<path d="M23.0563 35.5938H26.2438V38.675H23.0563V35.5938Z" fill="white"/>
<path d="M16.8938 35.5938H19.9751V38.675H16.8938V35.5938Z" fill="white"/>
<path d="M48.025 41.7562H51.1063V44.9437H48.025V41.7562Z" fill="white"/>
<path d="M41.7562 41.7562H44.9437V44.9437H41.7562V41.7562Z" fill="white"/>
<path d="M35.5938 41.7562H38.675V44.9437H35.5938V41.7562Z" fill="white"/>
<path d="M29.325 41.7562H32.4062V44.9437H29.325V41.7562Z" fill="white"/>
<path d="M23.0563 41.7562H26.2438V44.9437H23.0563V41.7562Z" fill="white"/>
<path d="M16.8938 41.7562H19.9751V44.9437H16.8938V41.7562Z" fill="white"/>
<path d="M41.7562 48.025H44.9437V51.1063H41.7562V48.025Z" fill="white"/>
<path d="M35.5938 48.025H38.675V51.1063H35.5938V48.025Z" fill="white"/>
<path d="M29.325 48.025H32.4062V51.1063H29.325V48.025Z" fill="white"/>
<path d="M23.0563 48.025H26.2438V51.1063H23.0563V48.025Z" fill="white"/>
<path d="M16.8938 48.025H19.9751V51.1063H16.8938V48.025Z" fill="white"/>
</svg>
