<svg width="42" height="76" viewBox="0 0 42 76" fill="none" xmlns="http://www.w3.org/2000/svg">
<path d="M37.5789 0H4.42105C1.97953 0 0 2.00171 0 4.47059V71.5294C0 73.9983 1.97953 76 4.42105 76H37.5789C40.0205 76 42 73.9983 42 71.5294V4.47059C42 2.00171 40.0205 0 37.5789 0ZM13.2632 4.14461H28.7368C29.0419 4.14461 29.2895 4.39496 29.2895 4.70343C29.2895 5.0119 29.0419 5.26226 28.7368 5.26226H13.2632C12.9581 5.26226 12.7105 5.0119 12.7105 4.70343C12.7105 4.39496 12.9581 4.14461 13.2632 4.14461ZM21 72.6471C19.7798 72.6471 18.7895 71.6457 18.7895 70.4118C18.7895 69.1779 19.7798 68.1765 21 68.1765C22.2202 68.1765 23.2105 69.1779 23.2105 70.4118C23.2105 71.6457 22.2202 72.6471 21 72.6471ZM36.3509 65.9412H5.64912V9.87255H36.3509V65.9412Z" fill="white"/>
</svg>
