<svg width="57" height="57" viewBox="0 0 57 57" fill="none" xmlns="http://www.w3.org/2000/svg">
<path d="M45.6001 15.96C45.6001 15.96 16.6475 15.96 11.4001 15.96C7.89343 15.96 5.70007 19.38 5.70007 21.66V46.0377C5.70007 48.9447 8.05531 51.3 10.9623 51.3H46.0378C48.9437 51.3 51.3001 48.9447 51.3001 46.0377V21.4844C51.3001 18.5808 48.5059 15.96 45.6001 15.96Z" stroke="white" stroke-width="4.5" stroke-miterlimit="10" stroke-linecap="round" stroke-linejoin="round"/>
<path d="M42.1801 12.5399V8.73007C42.1801 4.93273 41.3604 3.83719 36.6488 5.07979C33.1878 5.99293 12.9357 11.6074 12.9357 11.6074C6.69871 13.9581 5.74681 15.9588 5.74681 20.5177L5.70007 23.3164" stroke="white" stroke-width="4.5" stroke-miterlimit="10" stroke-linejoin="round"/>
<path d="M43.0384 37.62C40.6769 37.62 38.76 35.7082 38.76 33.3467C38.76 30.9852 40.6769 29.07 43.0384 29.07C45.3931 29.07 47.31 30.9852 47.31 33.3467C47.31 35.7082 45.3931 37.62 43.0384 37.62Z" fill="white"/>
</svg>
